<?xml version="1.0" encoding="utf-8" standalone="no"?>
<!DOCTYPE svg PUBLIC "-//W3C//DTD SVG 1.1//EN"
  "http://www.w3.org/Graphics/SVG/1.1/DTD/svg11.dtd">
<!-- Created with matplotlib (https://matplotlib.org/) -->
<svg height="432pt" version="1.1" viewBox="0 0 432 432" width="432pt" xmlns="http://www.w3.org/2000/svg" xmlns:xlink="http://www.w3.org/1999/xlink">
 <defs>
  <style type="text/css">
*{stroke-linecap:butt;stroke-linejoin:round;}
  </style>
 </defs>
 <g id="figure_1">
  <g id="patch_1">
   <path d="M 0 432 
L 432 432 
L 432 0 
L 0 0 
z
" style="fill:#ffffff;"/>
  </g>
  <g id="axes_1">
   <g id="patch_2">
    <path d="M 54 384.48 
L 388.8 384.48 
L 388.8 51.84 
L 54 51.84 
z
" style="fill:#ffffff;"/>
   </g>
   <g id="PathCollection_1">
    <defs>
     <path d="M 0 3 
C 0.795609 3 1.55874 2.683901 2.12132 2.12132 
C 2.683901 1.55874 3 0.795609 3 0 
C 3 -0.795609 2.683901 -1.55874 2.12132 -2.12132 
C 1.55874 -2.683901 0.795609 -3 0 -3 
C -0.795609 -3 -1.55874 -2.683901 -2.12132 -2.12132 
C -2.683901 -1.55874 -3 -0.795609 -3 0 
C -3 0.795609 -2.683901 1.55874 -2.12132 2.12132 
C -1.55874 2.683901 -0.795609 3 0 3 
z
" id="m6ee607c72c" style="stroke:#1f77b4;"/>
    </defs>
    <g clip-path="url(#pe5535e514d)">
     <use style="fill:#1f77b4;stroke:#1f77b4;" x="94.880642" xlink:href="#m6ee607c72c" y="191.269402"/>
     <use style="fill:#1f77b4;stroke:#1f77b4;" x="104.017093" xlink:href="#m6ee607c72c" y="256.108569"/>
     <use style="fill:#1f77b4;stroke:#1f77b4;" x="89.931755" xlink:href="#m6ee607c72c" y="237.444585"/>
     <use style="fill:#1f77b4;stroke:#1f77b4;" x="93.156128" xlink:href="#m6ee607c72c" y="251.797472"/>
     <use style="fill:#1f77b4;stroke:#1f77b4;" x="88.658158" xlink:href="#m6ee607c72c" y="181.898308"/>
     <use style="fill:#1f77b4;stroke:#1f77b4;" x="104.282134" xlink:href="#m6ee607c72c" y="134.576658"/>
     <use style="fill:#1f77b4;stroke:#1f77b4;" x="85.963756" xlink:href="#m6ee607c72c" y="215.560064"/>
     <use style="fill:#1f77b4;stroke:#1f77b4;" x="96.464646" xlink:href="#m6ee607c72c" y="205.700492"/>
     <use style="fill:#1f77b4;stroke:#1f77b4;" x="91.403031" xlink:href="#m6ee607c72c" y="280.894262"/>
     <use style="fill:#1f77b4;stroke:#1f77b4;" x="98.877226" xlink:href="#m6ee607c72c" y="244.585203"/>
     <use style="fill:#1f77b4;stroke:#1f77b4;" x="99.773164" xlink:href="#m6ee607c72c" y="159.603512"/>
     <use style="fill:#1f77b4;stroke:#1f77b4;" x="91.826166" xlink:href="#m6ee607c72c" y="210.760489"/>
     <use style="fill:#1f77b4;stroke:#1f77b4;" x="97.180492" xlink:href="#m6ee607c72c" y="259.1727"/>
     <use style="fill:#1f77b4;stroke:#1f77b4;" x="76.562264" xlink:href="#m6ee607c72c" y="272.252808"/>
     <use style="fill:#1f77b4;stroke:#1f77b4;" x="98.160576" xlink:href="#m6ee607c72c" y="113.741141"/>
     <use style="fill:#1f77b4;stroke:#1f77b4;" x="95.00437" xlink:href="#m6ee607c72c" y="67.324796"/>
     <use style="fill:#1f77b4;stroke:#1f77b4;" x="97.720659" xlink:href="#m6ee607c72c" y="134.88947"/>
     <use style="fill:#1f77b4;stroke:#1f77b4;" x="98.577818" xlink:href="#m6ee607c72c" y="190.774371"/>
     <use style="fill:#1f77b4;stroke:#1f77b4;" x="113.086291" xlink:href="#m6ee607c72c" y="139.304582"/>
     <use style="fill:#1f77b4;stroke:#1f77b4;" x="90.969007" xlink:href="#m6ee607c72c" y="154.875588"/>
     <use style="fill:#1f77b4;stroke:#1f77b4;" x="112.303082" xlink:href="#m6ee607c72c" y="195.267687"/>
     <use style="fill:#1f77b4;stroke:#1f77b4;" x="97.749243" xlink:href="#m6ee607c72c" y="166.320751"/>
     <use style="fill:#1f77b4;stroke:#1f77b4;" x="69.538985" xlink:href="#m6ee607c72c" y="192.48752"/>
     <use style="fill:#1f77b4;stroke:#1f77b4;" x="117.059397" xlink:href="#m6ee607c72c" y="213.430088"/>
     <use style="fill:#1f77b4;stroke:#1f77b4;" x="96.747273" xlink:href="#m6ee607c72c" y="210.52588"/>
     <use style="fill:#1f77b4;stroke:#1f77b4;" x="110.437255" xlink:href="#m6ee607c72c" y="253.383063"/>
     <use style="fill:#1f77b4;stroke:#1f77b4;" x="105.499367" xlink:href="#m6ee607c72c" y="204.632228"/>
     <use style="fill:#1f77b4;stroke:#1f77b4;" x="99.660435" xlink:href="#m6ee607c72c" y="188.622099"/>
     <use style="fill:#1f77b4;stroke:#1f77b4;" x="101.103126" xlink:href="#m6ee607c72c" y="200.640495"/>
     <use style="fill:#1f77b4;stroke:#1f77b4;" x="94.852862" xlink:href="#m6ee607c72c" y="237.209976"/>
     <use style="fill:#1f77b4;stroke:#1f77b4;" x="101.075346" xlink:href="#m6ee607c72c" y="246.58107"/>
     <use style="fill:#1f77b4;stroke:#1f77b4;" x="116.416696" xlink:href="#m6ee607c72c" y="194.434031"/>
     <use style="fill:#1f77b4;stroke:#1f77b4;" x="77.464899" xlink:href="#m6ee607c72c" y="117.475968"/>
     <use style="fill:#1f77b4;stroke:#1f77b4;" x="85.85692" xlink:href="#m6ee607c72c" y="97.411647"/>
     <use style="fill:#1f77b4;stroke:#1f77b4;" x="102.574402" xlink:href="#m6ee607c72c" y="244.090173"/>
     <use style="fill:#1f77b4;stroke:#1f77b4;" x="97.70966" xlink:href="#m6ee607c72c" y="229.815488"/>
     <use style="fill:#1f77b4;stroke:#1f77b4;" x="105.797971" xlink:href="#m6ee607c72c" y="181.071205"/>
     <use style="fill:#1f77b4;stroke:#1f77b4;" x="81.821557" xlink:href="#m6ee607c72c" y="184.962439"/>
     <use style="fill:#1f77b4;stroke:#1f77b4;" x="86.679602" xlink:href="#m6ee607c72c" y="269.032272"/>
     <use style="fill:#1f77b4;stroke:#1f77b4;" x="99.604071" xlink:href="#m6ee607c72c" y="203.131392"/>
     <use style="fill:#1f77b4;stroke:#1f77b4;" x="93.798025" xlink:href="#m6ee607c72c" y="193.421674"/>
     <use style="fill:#1f77b4;stroke:#1f77b4;" x="115.097622" xlink:href="#m6ee607c72c" y="349.549496"/>
     <use style="fill:#1f77b4;stroke:#1f77b4;" x="80.513482" xlink:href="#m6ee607c72c" y="245.151885"/>
     <use style="fill:#1f77b4;stroke:#1f77b4;" x="109.81066" xlink:href="#m6ee607c72c" y="191.701973"/>
     <use style="fill:#1f77b4;stroke:#1f77b4;" x="101.227658" xlink:href="#m6ee607c72c" y="154.067745"/>
     <use style="fill:#1f77b4;stroke:#1f77b4;" x="104.574844" xlink:href="#m6ee607c72c" y="258.182638"/>
     <use style="fill:#1f77b4;stroke:#1f77b4;" x="88.9122" xlink:href="#m6ee607c72c" y="155.292415"/>
     <use style="fill:#1f77b4;stroke:#1f77b4;" x="88.4327" xlink:href="#m6ee607c72c" y="239.935482"/>
     <use style="fill:#1f77b4;stroke:#1f77b4;" x="96.63374" xlink:href="#m6ee607c72c" y="162.172612"/>
     <use style="fill:#1f77b4;stroke:#1f77b4;" x="97.907337" xlink:href="#m6ee607c72c" y="217.718889"/>
    </g>
   </g>
   <g id="PathCollection_2">
    <defs>
     <path d="M 0 3 
C 0.795609 3 1.55874 2.683901 2.12132 2.12132 
C 2.683901 1.55874 3 0.795609 3 0 
C 3 -0.795609 2.683901 -1.55874 2.12132 -2.12132 
C 1.55874 -2.683901 0.795609 -3 0 -3 
C -0.795609 -3 -1.55874 -2.683901 -2.12132 -2.12132 
C -2.683901 -1.55874 -3 -0.795609 -3 0 
C -3 0.795609 -2.683901 1.55874 -2.12132 2.12132 
C -1.55874 2.683901 -0.795609 3 0 3 
z
" id="m76966f4cd6" style="stroke:#ff7f0e;"/>
    </defs>
    <g clip-path="url(#pe5535e514d)">
     <use style="fill:#ff7f0e;stroke:#ff7f0e;" x="262.27717" xlink:href="#m76966f4cd6" y="169.75602"/>
     <use style="fill:#ff7f0e;stroke:#ff7f0e;" x="243.857062" xlink:href="#m76966f4cd6" y="184.831995"/>
     <use style="fill:#ff7f0e;stroke:#ff7f0e;" x="269.198719" xlink:href="#m76966f4cd6" y="183.613877"/>
     <use style="fill:#ff7f0e;stroke:#ff7f0e;" x="227.753585" xlink:href="#m76966f4cd6" y="316.796711"/>
     <use style="fill:#ff7f0e;stroke:#ff7f0e;" x="260.969095" xlink:href="#m76966f4cd6" y="229.945466"/>
     <use style="fill:#ff7f0e;stroke:#ff7f0e;" x="226.818979" xlink:href="#m76966f4cd6" y="251.566529"/>
     <use style="fill:#ff7f0e;stroke:#ff7f0e;" x="244.612492" xlink:href="#m76966f4cd6" y="174.809464"/>
     <use style="fill:#ff7f0e;stroke:#ff7f0e;" x="183.259869" xlink:href="#m76966f4cd6" y="322.30363"/>
     <use style="fill:#ff7f0e;stroke:#ff7f0e;" x="253.631107" xlink:href="#m76966f4cd6" y="216.426234"/>
     <use style="fill:#ff7f0e;stroke:#ff7f0e;" x="208.05988" xlink:href="#m76966f4cd6" y="276.326409"/>
     <use style="fill:#ff7f0e;stroke:#ff7f0e;" x="202.012271" xlink:href="#m76966f4cd6" y="367.338898"/>
     <use style="fill:#ff7f0e;stroke:#ff7f0e;" x="229.404953" xlink:href="#m76966f4cd6" y="221.79249"/>
     <use style="fill:#ff7f0e;stroke:#ff7f0e;" x="235.442239" xlink:href="#m76966f4cd6" y="317.376497"/>
     <use style="fill:#ff7f0e;stroke:#ff7f0e;" x="243.27153" xlink:href="#m76966f4cd6" y="228.6985"/>
     <use style="fill:#ff7f0e;stroke:#ff7f0e;" x="205.833175" xlink:href="#m76966f4cd6" y="242.899262"/>
     <use style="fill:#ff7f0e;stroke:#ff7f0e;" x="251.02085" xlink:href="#m76966f4cd6" y="189.638122"/>
     <use style="fill:#ff7f0e;stroke:#ff7f0e;" x="224.907787" xlink:href="#m76966f4cd6" y="229.265181"/>
     <use style="fill:#ff7f0e;stroke:#ff7f0e;" x="215.388459" xlink:href="#m76966f4cd6" y="262.735526"/>
     <use style="fill:#ff7f0e;stroke:#ff7f0e;" x="268.408813" xlink:href="#m76966f4cd6" y="309.37213"/>
     <use style="fill:#ff7f0e;stroke:#ff7f0e;" x="215.692169" xlink:href="#m76966f4cd6" y="291.415488"/>
     <use style="fill:#ff7f0e;stroke:#ff7f0e;" x="244.172575" xlink:href="#m76966f4cd6" y="195.957794"/>
     <use style="fill:#ff7f0e;stroke:#ff7f0e;" x="231.174832" xlink:href="#m76966f4cd6" y="241.681144"/>
     <use style="fill:#ff7f0e;stroke:#ff7f0e;" x="268.860533" xlink:href="#m76966f4cd6" y="270.669637"/>
     <use style="fill:#ff7f0e;stroke:#ff7f0e;" x="238.960238" xlink:href="#m76966f4cd6" y="241.628754"/>
     <use style="fill:#ff7f0e;stroke:#ff7f0e;" x="242.431152" xlink:href="#m76966f4cd6" y="221.799042"/>
     <use style="fill:#ff7f0e;stroke:#ff7f0e;" x="250.964486" xlink:href="#m76966f4cd6" y="204.147415"/>
     <use style="fill:#ff7f0e;stroke:#ff7f0e;" x="269.97093" xlink:href="#m76966f4cd6" y="222.576791"/>
     <use style="fill:#ff7f0e;stroke:#ff7f0e;" x="275.037652" xlink:href="#m76966f4cd6" y="199.624006"/>
     <use style="fill:#ff7f0e;stroke:#ff7f0e;" x="240.548544" xlink:href="#m76966f4cd6" y="230.928975"/>
     <use style="fill:#ff7f0e;stroke:#ff7f0e;" x="205.489882" xlink:href="#m76966f4cd6" y="277.714037"/>
     <use style="fill:#ff7f0e;stroke:#ff7f0e;" x="213.995436" xlink:href="#m76966f4cd6" y="306.002985"/>
     <use style="fill:#ff7f0e;stroke:#ff7f0e;" x="208.657891" xlink:href="#m76966f4cd6" y="306.576218"/>
     <use style="fill:#ff7f0e;stroke:#ff7f0e;" x="219.502074" xlink:href="#m76966f4cd6" y="261.901871"/>
     <use style="fill:#ff7f0e;stroke:#ff7f0e;" x="260.254053" xlink:href="#m76966f4cd6" y="253.845114"/>
     <use style="fill:#ff7f0e;stroke:#ff7f0e;" x="218.628938" xlink:href="#m76966f4cd6" y="234.403381"/>
     <use style="fill:#ff7f0e;stroke:#ff7f0e;" x="228.830421" xlink:href="#m76966f4cd6" y="170.732977"/>
     <use style="fill:#ff7f0e;stroke:#ff7f0e;" x="259.639133" xlink:href="#m76966f4cd6" y="188.908482"/>
     <use style="fill:#ff7f0e;stroke:#ff7f0e;" x="259.430456" xlink:href="#m76966f4cd6" y="295.9311"/>
     <use style="fill:#ff7f0e;stroke:#ff7f0e;" x="210.951959" xlink:href="#m76966f4cd6" y="230.568054"/>
     <use style="fill:#ff7f0e;stroke:#ff7f0e;" x="221.587466" xlink:href="#m76966f4cd6" y="292.916324"/>
     <use style="fill:#ff7f0e;stroke:#ff7f0e;" x="221.368705" xlink:href="#m76966f4cd6" y="281.15835"/>
     <use style="fill:#ff7f0e;stroke:#ff7f0e;" x="238.548101" xlink:href="#m76966f4cd6" y="216.836509"/>
     <use style="fill:#ff7f0e;stroke:#ff7f0e;" x="224.225503" xlink:href="#m76966f4cd6" y="273.763862"/>
     <use style="fill:#ff7f0e;stroke:#ff7f0e;" x="189.482353" xlink:href="#m76966f4cd6" y="331.674723"/>
     <use style="fill:#ff7f0e;stroke:#ff7f0e;" x="221.841508" xlink:href="#m76966f4cd6" y="266.310431"/>
     <use style="fill:#ff7f0e;stroke:#ff7f0e;" x="212.034576" xlink:href="#m76966f4cd6" y="228.415782"/>
     <use style="fill:#ff7f0e;stroke:#ff7f0e;" x="218.814812" xlink:href="#m76966f4cd6" y="239.860944"/>
     <use style="fill:#ff7f0e;stroke:#ff7f0e;" x="236.152303" xlink:href="#m76966f4cd6" y="226.937242"/>
     <use style="fill:#ff7f0e;stroke:#ff7f0e;" x="185.231727" xlink:href="#m76966f4cd6" y="304.964815"/>
     <use style="fill:#ff7f0e;stroke:#ff7f0e;" x="220.257503" xlink:href="#m76966f4cd6" y="251.879341"/>
    </g>
   </g>
   <g id="PathCollection_3">
    <defs>
     <path d="M 0 3 
C 0.795609 3 1.55874 2.683901 2.12132 2.12132 
C 2.683901 1.55874 3 0.795609 3 0 
C 3 -0.795609 2.683901 -1.55874 2.12132 -2.12132 
C 1.55874 -2.683901 0.795609 -3 0 -3 
C -0.795609 -3 -1.55874 -2.683901 -2.12132 -2.12132 
C -2.683901 -1.55874 -3 -0.795609 -3 0 
C -3 0.795609 -2.683901 1.55874 -2.12132 2.12132 
C -1.55874 2.683901 -0.795609 3 0 3 
z
" id="m4ed9f9510c" style="stroke:#2ca02c;"/>
    </defs>
    <g clip-path="url(#pe5535e514d)">
     <use style="fill:#2ca02c;stroke:#2ca02c;" x="299.211871" xlink:href="#m4ed9f9510c" y="169.337551"/>
     <use style="fill:#2ca02c;stroke:#2ca02c;" x="265.066733" xlink:href="#m4ed9f9510c" y="257.498222"/>
     <use style="fill:#2ca02c;stroke:#2ca02c;" x="317.147373" xlink:href="#m4ed9f9510c" y="186.663657"/>
     <use style="fill:#2ca02c;stroke:#2ca02c;" x="279.102403" xlink:href="#m4ed9f9510c" y="220.876351"/>
     <use style="fill:#2ca02c;stroke:#2ca02c;" x="300.367634" xlink:href="#m4ed9f9510c" y="201.661429"/>
     <use style="fill:#2ca02c;stroke:#2ca02c;" x="344.327077" xlink:href="#m4ed9f9510c" y="173.270737"/>
     <use style="fill:#2ca02c;stroke:#2ca02c;" x="225.741468" xlink:href="#m4ed9f9510c" y="305.959787"/>
     <use style="fill:#2ca02c;stroke:#2ca02c;" x="321.979229" xlink:href="#m4ed9f9510c" y="194.637931"/>
     <use style="fill:#2ca02c;stroke:#2ca02c;" x="307.273078" xlink:href="#m4ed9f9510c" y="258.204319"/>
     <use style="fill:#2ca02c;stroke:#2ca02c;" x="319.85788" xlink:href="#m4ed9f9510c" y="110.316868"/>
     <use style="fill:#2ca02c;stroke:#2ca02c;" x="275.32458" xlink:href="#m4ed9f9510c" y="179.318524"/>
     <use style="fill:#2ca02c;stroke:#2ca02c;" x="287.184017" xlink:href="#m4ed9f9510c" y="241.927216"/>
     <use style="fill:#2ca02c;stroke:#2ca02c;" x="301.167625" xlink:href="#m4ed9f9510c" y="194.683769"/>
     <use style="fill:#2ca02c;stroke:#2ca02c;" x="270.150235" xlink:href="#m4ed9f9510c" y="283.530881"/>
     <use style="fill:#2ca02c;stroke:#2ca02c;" x="280.469553" xlink:href="#m4ed9f9510c" y="243.082875"/>
     <use style="fill:#2ca02c;stroke:#2ca02c;" x="286.557422" xlink:href="#m4ed9f9510c" y="180.246126"/>
     <use style="fill:#2ca02c;stroke:#2ca02c;" x="280.657823" xlink:href="#m4ed9f9510c" y="203.87616"/>
     <use style="fill:#2ca02c;stroke:#2ca02c;" x="328.139567" xlink:href="#m4ed9f9510c" y="74.606856"/>
     <use style="fill:#2ca02c;stroke:#2ca02c;" x="372.1142" xlink:href="#m4ed9f9510c" y="217.237741"/>
     <use style="fill:#2ca02c;stroke:#2ca02c;" x="270.331808" xlink:href="#m4ed9f9510c" y="314.119315"/>
     <use style="fill:#2ca02c;stroke:#2ca02c;" x="308.816019" xlink:href="#m4ed9f9510c" y="167.087815"/>
     <use style="fill:#2ca02c;stroke:#2ca02c;" x="256.121262" xlink:href="#m4ed9f9510c" y="250.357603"/>
     <use style="fill:#2ca02c;stroke:#2ca02c;" x="351.575814" xlink:href="#m4ed9f9510c" y="194.998852"/>
     <use style="fill:#2ca02c;stroke:#2ca02c;" x="273.785941" xlink:href="#m4ed9f9510c" y="245.304158"/>
     <use style="fill:#2ca02c;stroke:#2ca02c;" x="292.059758" xlink:href="#m4ed9f9510c" y="161.275882"/>
     <use style="fill:#2ca02c;stroke:#2ca02c;" x="304.669518" xlink:href="#m4ed9f9510c" y="161.621059"/>
     <use style="fill:#2ca02c;stroke:#2ca02c;" x="265.923088" xlink:href="#m4ed9f9510c" y="236.011268"/>
     <use style="fill:#2ca02c;stroke:#2ca02c;" x="258.257912" xlink:href="#m4ed9f9510c" y="214.621778"/>
     <use style="fill:#2ca02c;stroke:#2ca02c;" x="296.416416" xlink:href="#m4ed9f9510c" y="228.762353"/>
     <use style="fill:#2ca02c;stroke:#2ca02c;" x="300.160548" xlink:href="#m4ed9f9510c" y="186.647913"/>
     <use style="fill:#2ca02c;stroke:#2ca02c;" x="328.618152" xlink:href="#m4ed9f9510c" y="203.6704"/>
     <use style="fill:#2ca02c;stroke:#2ca02c;" x="322.102957" xlink:href="#m4ed9f9510c" y="70.693326"/>
     <use style="fill:#2ca02c;stroke:#2ca02c;" x="300.113592" xlink:href="#m4ed9f9510c" y="228.267322"/>
     <use style="fill:#2ca02c;stroke:#2ca02c;" x="262.89209" xlink:href="#m4ed9f9510c" y="234.692651"/>
     <use style="fill:#2ca02c;stroke:#2ca02c;" x="267.284029" xlink:href="#m4ed9f9510c" y="263.815254"/>
     <use style="fill:#2ca02c;stroke:#2ca02c;" x="346.65901" xlink:href="#m4ed9f9510c" y="170.102591"/>
     <use style="fill:#2ca02c;stroke:#2ca02c;" x="285.87016" xlink:href="#m4ed9f9510c" y="158.2052"/>
     <use style="fill:#2ca02c;stroke:#2ca02c;" x="274.435339" xlink:href="#m4ed9f9510c" y="194.505067"/>
     <use style="fill:#2ca02c;stroke:#2ca02c;" x="253.478119" xlink:href="#m4ed9f9510c" y="217.269081"/>
     <use style="fill:#2ca02c;stroke:#2ca02c;" x="299.58362" xlink:href="#m4ed9f9510c" y="180.252678"/>
     <use style="fill:#2ca02c;stroke:#2ca02c;" x="307.677037" xlink:href="#m4ed9f9510c" y="183.749381"/>
     <use style="fill:#2ca02c;stroke:#2ca02c;" x="302.056866" xlink:href="#m4ed9f9510c" y="179.497226"/>
     <use style="fill:#2ca02c;stroke:#2ca02c;" x="265.066733" xlink:href="#m4ed9f9510c" y="257.498222"/>
     <use style="fill:#2ca02c;stroke:#2ca02c;" x="308.957332" xlink:href="#m4ed9f9510c" y="169.500509"/>
     <use style="fill:#2ca02c;stroke:#2ca02c;" x="306.848462" xlink:href="#m4ed9f9510c" y="159.29576"/>
     <use style="fill:#2ca02c;stroke:#2ca02c;" x="300.501446" xlink:href="#m4ed9f9510c" y="196.497416"/>
     <use style="fill:#2ca02c;stroke:#2ca02c;" x="285.289606" xlink:href="#m4ed9f9510c" y="268.611312"/>
     <use style="fill:#2ca02c;stroke:#2ca02c;" x="283.131069" xlink:href="#m4ed9f9510c" y="203.120708"/>
     <use style="fill:#2ca02c;stroke:#2ca02c;" x="275.752822" xlink:href="#m4ed9f9510c" y="161.425736"/>
     <use style="fill:#2ca02c;stroke:#2ca02c;" x="255.259801" xlink:href="#m4ed9f9510c" y="219.603572"/>
    </g>
   </g>
   <g id="patch_3">
    <path clip-path="url(#pe5535e514d)" d="M 94.170746 314.682508 
C 100.015391 314.861035 105.905549 303.159871 110.543979 282.156061 
C 115.18241 261.152252 118.190406 232.560665 118.905491 202.678266 
C 119.620577 172.795867 117.984369 144.062421 114.357222 122.806136 
C 110.730076 101.549851 105.408131 89.506209 99.563486 89.327682 
C 93.71884 89.149155 87.828683 100.85032 83.190253 121.854129 
C 78.551822 142.857938 75.543826 171.449525 74.82874 201.331925 
C 74.113655 231.214324 75.749863 259.94777 79.377009 281.204054 
C 83.004156 302.460339 88.3261 314.503981 94.170746 314.682508 
z
" style="fill:#1f77b4;opacity:0.2;"/>
   </g>
   <g id="patch_4">
    <path clip-path="url(#pe5535e514d)" d="M 234.046542 349.592992 
C 247.191642 349.280755 259.60317 338.397376 268.547629 319.339794 
C 277.492089 300.282212 282.239206 274.606393 281.743482 247.96714 
C 281.247758 221.327886 275.549668 195.900173 265.904148 177.284161 
C 256.258629 158.668149 243.453196 148.383752 230.308096 148.695989 
C 217.162996 149.008227 204.751468 159.891605 195.807009 178.949187 
C 186.862549 198.006769 182.115432 223.682588 182.611156 250.321842 
C 183.10688 276.961095 188.80497 302.388808 198.450489 321.00482 
C 208.096009 339.620832 220.901442 349.905229 234.046542 349.592992 
z
" style="fill:#ff7f0e;opacity:0.2;"/>
   </g>
   <g id="patch_5">
    <path clip-path="url(#pe5535e514d)" d="M 295.261425 309.198264 
C 311.421358 308.840793 326.728704 297.36724 337.812196 277.304522 
C 348.895689 257.241804 354.85041 230.227952 354.364902 202.212455 
C 353.879394 174.196957 346.993296 147.467155 335.223192 127.909977 
C 323.453087 108.352799 307.759953 97.565002 291.600019 97.922472 
C 275.440086 98.279943 260.13274 109.753496 249.049248 129.816214 
C 237.965755 149.878933 232.011034 176.892784 232.496542 204.908282 
C 232.98205 232.923779 239.868148 259.653581 251.638252 279.210759 
C 263.408357 298.767937 279.101491 309.555735 295.261425 309.198264 
z
" style="fill:#2ca02c;opacity:0.2;"/>
   </g>
   <g id="matplotlib.axis_1">
    <g id="xtick_1">
     <g id="line2d_1">
      <path clip-path="url(#pe5535e514d)" d="M 58.318402 384.48 
L 58.318402 51.84 
" style="fill:none;stroke:#b0b0b0;stroke-linecap:square;stroke-width:0.8;"/>
     </g>
     <g id="text_1">
      <!-- −3 -->
      <defs>
       <path d="M 10.59375 35.5 
L 73.1875 35.5 
L 73.1875 27.203125 
L 10.59375 27.203125 
z
" id="DejaVuSans-8722"/>
       <path d="M 40.578125 39.3125 
Q 47.65625 37.796875 51.625 33 
Q 55.609375 28.21875 55.609375 21.1875 
Q 55.609375 10.40625 48.1875 4.484375 
Q 40.765625 -1.421875 27.09375 -1.421875 
Q 22.515625 -1.421875 17.65625 -0.515625 
Q 12.796875 0.390625 7.625 2.203125 
L 7.625 11.71875 
Q 11.71875 9.328125 16.59375 8.109375 
Q 21.484375 6.890625 26.8125 6.890625 
Q 36.078125 6.890625 40.9375 10.546875 
Q 45.796875 14.203125 45.796875 21.1875 
Q 45.796875 27.640625 41.28125 31.265625 
Q 36.765625 34.90625 28.71875 34.90625 
L 20.21875 34.90625 
L 20.21875 43.015625 
L 29.109375 43.015625 
Q 36.375 43.015625 40.234375 45.921875 
Q 44.09375 48.828125 44.09375 54.296875 
Q 44.09375 59.90625 40.109375 62.90625 
Q 36.140625 65.921875 28.71875 65.921875 
Q 24.65625 65.921875 20.015625 65.03125 
Q 15.375 64.15625 9.8125 62.3125 
L 9.8125 71.09375 
Q 15.4375 72.65625 20.34375 73.4375 
Q 25.25 74.21875 29.59375 74.21875 
Q 40.828125 74.21875 47.359375 69.109375 
Q 53.90625 64.015625 53.90625 55.328125 
Q 53.90625 49.265625 50.4375 45.09375 
Q 46.96875 40.921875 40.578125 39.3125 
z
" id="DejaVuSans-51"/>
      </defs>
      <g transform="translate(50.947308 399.078438)scale(0.1 -0.1)">
       <use xlink:href="#DejaVuSans-8722"/>
       <use x="83.789062" xlink:href="#DejaVuSans-51"/>
      </g>
     </g>
    </g>
    <g id="xtick_2">
     <g id="line2d_2">
      <path clip-path="url(#pe5535e514d)" d="M 108.042841 384.48 
L 108.042841 51.84 
" style="fill:none;stroke:#b0b0b0;stroke-linecap:square;stroke-width:0.8;"/>
     </g>
     <g id="text_2">
      <!-- −2 -->
      <defs>
       <path d="M 19.1875 8.296875 
L 53.609375 8.296875 
L 53.609375 0 
L 7.328125 0 
L 7.328125 8.296875 
Q 12.9375 14.109375 22.625 23.890625 
Q 32.328125 33.6875 34.8125 36.53125 
Q 39.546875 41.84375 41.421875 45.53125 
Q 43.3125 49.21875 43.3125 52.78125 
Q 43.3125 58.59375 39.234375 62.25 
Q 35.15625 65.921875 28.609375 65.921875 
Q 23.96875 65.921875 18.8125 64.3125 
Q 13.671875 62.703125 7.8125 59.421875 
L 7.8125 69.390625 
Q 13.765625 71.78125 18.9375 73 
Q 24.125 74.21875 28.421875 74.21875 
Q 39.75 74.21875 46.484375 68.546875 
Q 53.21875 62.890625 53.21875 53.421875 
Q 53.21875 48.921875 51.53125 44.890625 
Q 49.859375 40.875 45.40625 35.40625 
Q 44.1875 33.984375 37.640625 27.21875 
Q 31.109375 20.453125 19.1875 8.296875 
z
" id="DejaVuSans-50"/>
      </defs>
      <g transform="translate(100.671747 399.078438)scale(0.1 -0.1)">
       <use xlink:href="#DejaVuSans-8722"/>
       <use x="83.789062" xlink:href="#DejaVuSans-50"/>
      </g>
     </g>
    </g>
    <g id="xtick_3">
     <g id="line2d_3">
      <path clip-path="url(#pe5535e514d)" d="M 157.76728 384.48 
L 157.76728 51.84 
" style="fill:none;stroke:#b0b0b0;stroke-linecap:square;stroke-width:0.8;"/>
     </g>
     <g id="text_3">
      <!-- −1 -->
      <defs>
       <path d="M 12.40625 8.296875 
L 28.515625 8.296875 
L 28.515625 63.921875 
L 10.984375 60.40625 
L 10.984375 69.390625 
L 28.421875 72.90625 
L 38.28125 72.90625 
L 38.28125 8.296875 
L 54.390625 8.296875 
L 54.390625 0 
L 12.40625 0 
z
" id="DejaVuSans-49"/>
      </defs>
      <g transform="translate(150.396186 399.078438)scale(0.1 -0.1)">
       <use xlink:href="#DejaVuSans-8722"/>
       <use x="83.789062" xlink:href="#DejaVuSans-49"/>
      </g>
     </g>
    </g>
    <g id="xtick_4">
     <g id="line2d_4">
      <path clip-path="url(#pe5535e514d)" d="M 207.491719 384.48 
L 207.491719 51.84 
" style="fill:none;stroke:#b0b0b0;stroke-linecap:square;stroke-width:0.8;"/>
     </g>
     <g id="text_4">
      <!-- 0 -->
      <defs>
       <path d="M 31.78125 66.40625 
Q 24.171875 66.40625 20.328125 58.90625 
Q 16.5 51.421875 16.5 36.375 
Q 16.5 21.390625 20.328125 13.890625 
Q 24.171875 6.390625 31.78125 6.390625 
Q 39.453125 6.390625 43.28125 13.890625 
Q 47.125 21.390625 47.125 36.375 
Q 47.125 51.421875 43.28125 58.90625 
Q 39.453125 66.40625 31.78125 66.40625 
z
M 31.78125 74.21875 
Q 44.046875 74.21875 50.515625 64.515625 
Q 56.984375 54.828125 56.984375 36.375 
Q 56.984375 17.96875 50.515625 8.265625 
Q 44.046875 -1.421875 31.78125 -1.421875 
Q 19.53125 -1.421875 13.0625 8.265625 
Q 6.59375 17.96875 6.59375 36.375 
Q 6.59375 54.828125 13.0625 64.515625 
Q 19.53125 74.21875 31.78125 74.21875 
z
" id="DejaVuSans-48"/>
      </defs>
      <g transform="translate(204.310469 399.078438)scale(0.1 -0.1)">
       <use xlink:href="#DejaVuSans-48"/>
      </g>
     </g>
    </g>
    <g id="xtick_5">
     <g id="line2d_5">
      <path clip-path="url(#pe5535e514d)" d="M 257.216158 384.48 
L 257.216158 51.84 
" style="fill:none;stroke:#b0b0b0;stroke-linecap:square;stroke-width:0.8;"/>
     </g>
     <g id="text_5">
      <!-- 1 -->
      <g transform="translate(254.034908 399.078438)scale(0.1 -0.1)">
       <use xlink:href="#DejaVuSans-49"/>
      </g>
     </g>
    </g>
    <g id="xtick_6">
     <g id="line2d_6">
      <path clip-path="url(#pe5535e514d)" d="M 306.940597 384.48 
L 306.940597 51.84 
" style="fill:none;stroke:#b0b0b0;stroke-linecap:square;stroke-width:0.8;"/>
     </g>
     <g id="text_6">
      <!-- 2 -->
      <g transform="translate(303.759347 399.078438)scale(0.1 -0.1)">
       <use xlink:href="#DejaVuSans-50"/>
      </g>
     </g>
    </g>
    <g id="xtick_7">
     <g id="line2d_7">
      <path clip-path="url(#pe5535e514d)" d="M 356.665036 384.48 
L 356.665036 51.84 
" style="fill:none;stroke:#b0b0b0;stroke-linecap:square;stroke-width:0.8;"/>
     </g>
     <g id="text_7">
      <!-- 3 -->
      <g transform="translate(353.483786 399.078438)scale(0.1 -0.1)">
       <use xlink:href="#DejaVuSans-51"/>
      </g>
     </g>
    </g>
    <g id="text_8">
     <!-- Component 0 (72.96% inertia) -->
     <defs>
      <path d="M 64.40625 67.28125 
L 64.40625 56.890625 
Q 59.421875 61.53125 53.78125 63.8125 
Q 48.140625 66.109375 41.796875 66.109375 
Q 29.296875 66.109375 22.65625 58.46875 
Q 16.015625 50.828125 16.015625 36.375 
Q 16.015625 21.96875 22.65625 14.328125 
Q 29.296875 6.6875 41.796875 6.6875 
Q 48.140625 6.6875 53.78125 8.984375 
Q 59.421875 11.28125 64.40625 15.921875 
L 64.40625 5.609375 
Q 59.234375 2.09375 53.4375 0.328125 
Q 47.65625 -1.421875 41.21875 -1.421875 
Q 24.65625 -1.421875 15.125 8.703125 
Q 5.609375 18.84375 5.609375 36.375 
Q 5.609375 53.953125 15.125 64.078125 
Q 24.65625 74.21875 41.21875 74.21875 
Q 47.75 74.21875 53.53125 72.484375 
Q 59.328125 70.75 64.40625 67.28125 
z
" id="DejaVuSans-67"/>
      <path d="M 30.609375 48.390625 
Q 23.390625 48.390625 19.1875 42.75 
Q 14.984375 37.109375 14.984375 27.296875 
Q 14.984375 17.484375 19.15625 11.84375 
Q 23.34375 6.203125 30.609375 6.203125 
Q 37.796875 6.203125 41.984375 11.859375 
Q 46.1875 17.53125 46.1875 27.296875 
Q 46.1875 37.015625 41.984375 42.703125 
Q 37.796875 48.390625 30.609375 48.390625 
z
M 30.609375 56 
Q 42.328125 56 49.015625 48.375 
Q 55.71875 40.765625 55.71875 27.296875 
Q 55.71875 13.875 49.015625 6.21875 
Q 42.328125 -1.421875 30.609375 -1.421875 
Q 18.84375 -1.421875 12.171875 6.21875 
Q 5.515625 13.875 5.515625 27.296875 
Q 5.515625 40.765625 12.171875 48.375 
Q 18.84375 56 30.609375 56 
z
" id="DejaVuSans-111"/>
      <path d="M 52 44.1875 
Q 55.375 50.25 60.0625 53.125 
Q 64.75 56 71.09375 56 
Q 79.640625 56 84.28125 50.015625 
Q 88.921875 44.046875 88.921875 33.015625 
L 88.921875 0 
L 79.890625 0 
L 79.890625 32.71875 
Q 79.890625 40.578125 77.09375 44.375 
Q 74.3125 48.1875 68.609375 48.1875 
Q 61.625 48.1875 57.5625 43.546875 
Q 53.515625 38.921875 53.515625 30.90625 
L 53.515625 0 
L 44.484375 0 
L 44.484375 32.71875 
Q 44.484375 40.625 41.703125 44.40625 
Q 38.921875 48.1875 33.109375 48.1875 
Q 26.21875 48.1875 22.15625 43.53125 
Q 18.109375 38.875 18.109375 30.90625 
L 18.109375 0 
L 9.078125 0 
L 9.078125 54.6875 
L 18.109375 54.6875 
L 18.109375 46.1875 
Q 21.1875 51.21875 25.484375 53.609375 
Q 29.78125 56 35.6875 56 
Q 41.65625 56 45.828125 52.96875 
Q 50 49.953125 52 44.1875 
z
" id="DejaVuSans-109"/>
      <path d="M 18.109375 8.203125 
L 18.109375 -20.796875 
L 9.078125 -20.796875 
L 9.078125 54.6875 
L 18.109375 54.6875 
L 18.109375 46.390625 
Q 20.953125 51.265625 25.265625 53.625 
Q 29.59375 56 35.59375 56 
Q 45.5625 56 51.78125 48.09375 
Q 58.015625 40.1875 58.015625 27.296875 
Q 58.015625 14.40625 51.78125 6.484375 
Q 45.5625 -1.421875 35.59375 -1.421875 
Q 29.59375 -1.421875 25.265625 0.953125 
Q 20.953125 3.328125 18.109375 8.203125 
z
M 48.6875 27.296875 
Q 48.6875 37.203125 44.609375 42.84375 
Q 40.53125 48.484375 33.40625 48.484375 
Q 26.265625 48.484375 22.1875 42.84375 
Q 18.109375 37.203125 18.109375 27.296875 
Q 18.109375 17.390625 22.1875 11.75 
Q 26.265625 6.109375 33.40625 6.109375 
Q 40.53125 6.109375 44.609375 11.75 
Q 48.6875 17.390625 48.6875 27.296875 
z
" id="DejaVuSans-112"/>
      <path d="M 54.890625 33.015625 
L 54.890625 0 
L 45.90625 0 
L 45.90625 32.71875 
Q 45.90625 40.484375 42.875 44.328125 
Q 39.84375 48.1875 33.796875 48.1875 
Q 26.515625 48.1875 22.3125 43.546875 
Q 18.109375 38.921875 18.109375 30.90625 
L 18.109375 0 
L 9.078125 0 
L 9.078125 54.6875 
L 18.109375 54.6875 
L 18.109375 46.1875 
Q 21.34375 51.125 25.703125 53.5625 
Q 30.078125 56 35.796875 56 
Q 45.21875 56 50.046875 50.171875 
Q 54.890625 44.34375 54.890625 33.015625 
z
" id="DejaVuSans-110"/>
      <path d="M 56.203125 29.59375 
L 56.203125 25.203125 
L 14.890625 25.203125 
Q 15.484375 15.921875 20.484375 11.0625 
Q 25.484375 6.203125 34.421875 6.203125 
Q 39.59375 6.203125 44.453125 7.46875 
Q 49.3125 8.734375 54.109375 11.28125 
L 54.109375 2.78125 
Q 49.265625 0.734375 44.1875 -0.34375 
Q 39.109375 -1.421875 33.890625 -1.421875 
Q 20.796875 -1.421875 13.15625 6.1875 
Q 5.515625 13.8125 5.515625 26.8125 
Q 5.515625 40.234375 12.765625 48.109375 
Q 20.015625 56 32.328125 56 
Q 43.359375 56 49.78125 48.890625 
Q 56.203125 41.796875 56.203125 29.59375 
z
M 47.21875 32.234375 
Q 47.125 39.59375 43.09375 43.984375 
Q 39.0625 48.390625 32.421875 48.390625 
Q 24.90625 48.390625 20.390625 44.140625 
Q 15.875 39.890625 15.1875 32.171875 
z
" id="DejaVuSans-101"/>
      <path d="M 18.3125 70.21875 
L 18.3125 54.6875 
L 36.8125 54.6875 
L 36.8125 47.703125 
L 18.3125 47.703125 
L 18.3125 18.015625 
Q 18.3125 11.328125 20.140625 9.421875 
Q 21.96875 7.515625 27.59375 7.515625 
L 36.8125 7.515625 
L 36.8125 0 
L 27.59375 0 
Q 17.1875 0 13.234375 3.875 
Q 9.28125 7.765625 9.28125 18.015625 
L 9.28125 47.703125 
L 2.6875 47.703125 
L 2.6875 54.6875 
L 9.28125 54.6875 
L 9.28125 70.21875 
z
" id="DejaVuSans-116"/>
      <path id="DejaVuSans-32"/>
      <path d="M 31 75.875 
Q 24.46875 64.65625 21.28125 53.65625 
Q 18.109375 42.671875 18.109375 31.390625 
Q 18.109375 20.125 21.3125 9.0625 
Q 24.515625 -2 31 -13.1875 
L 23.1875 -13.1875 
Q 15.875 -1.703125 12.234375 9.375 
Q 8.59375 20.453125 8.59375 31.390625 
Q 8.59375 42.28125 12.203125 53.3125 
Q 15.828125 64.359375 23.1875 75.875 
z
" id="DejaVuSans-40"/>
      <path d="M 8.203125 72.90625 
L 55.078125 72.90625 
L 55.078125 68.703125 
L 28.609375 0 
L 18.3125 0 
L 43.21875 64.59375 
L 8.203125 64.59375 
z
" id="DejaVuSans-55"/>
      <path d="M 10.6875 12.40625 
L 21 12.40625 
L 21 0 
L 10.6875 0 
z
" id="DejaVuSans-46"/>
      <path d="M 10.984375 1.515625 
L 10.984375 10.5 
Q 14.703125 8.734375 18.5 7.8125 
Q 22.3125 6.890625 25.984375 6.890625 
Q 35.75 6.890625 40.890625 13.453125 
Q 46.046875 20.015625 46.78125 33.40625 
Q 43.953125 29.203125 39.59375 26.953125 
Q 35.25 24.703125 29.984375 24.703125 
Q 19.046875 24.703125 12.671875 31.3125 
Q 6.296875 37.9375 6.296875 49.421875 
Q 6.296875 60.640625 12.9375 67.421875 
Q 19.578125 74.21875 30.609375 74.21875 
Q 43.265625 74.21875 49.921875 64.515625 
Q 56.59375 54.828125 56.59375 36.375 
Q 56.59375 19.140625 48.40625 8.859375 
Q 40.234375 -1.421875 26.421875 -1.421875 
Q 22.703125 -1.421875 18.890625 -0.6875 
Q 15.09375 0.046875 10.984375 1.515625 
z
M 30.609375 32.421875 
Q 37.25 32.421875 41.125 36.953125 
Q 45.015625 41.5 45.015625 49.421875 
Q 45.015625 57.28125 41.125 61.84375 
Q 37.25 66.40625 30.609375 66.40625 
Q 23.96875 66.40625 20.09375 61.84375 
Q 16.21875 57.28125 16.21875 49.421875 
Q 16.21875 41.5 20.09375 36.953125 
Q 23.96875 32.421875 30.609375 32.421875 
z
" id="DejaVuSans-57"/>
      <path d="M 33.015625 40.375 
Q 26.375 40.375 22.484375 35.828125 
Q 18.609375 31.296875 18.609375 23.390625 
Q 18.609375 15.53125 22.484375 10.953125 
Q 26.375 6.390625 33.015625 6.390625 
Q 39.65625 6.390625 43.53125 10.953125 
Q 47.40625 15.53125 47.40625 23.390625 
Q 47.40625 31.296875 43.53125 35.828125 
Q 39.65625 40.375 33.015625 40.375 
z
M 52.59375 71.296875 
L 52.59375 62.3125 
Q 48.875 64.0625 45.09375 64.984375 
Q 41.3125 65.921875 37.59375 65.921875 
Q 27.828125 65.921875 22.671875 59.328125 
Q 17.53125 52.734375 16.796875 39.40625 
Q 19.671875 43.65625 24.015625 45.921875 
Q 28.375 48.1875 33.59375 48.1875 
Q 44.578125 48.1875 50.953125 41.515625 
Q 57.328125 34.859375 57.328125 23.390625 
Q 57.328125 12.15625 50.6875 5.359375 
Q 44.046875 -1.421875 33.015625 -1.421875 
Q 20.359375 -1.421875 13.671875 8.265625 
Q 6.984375 17.96875 6.984375 36.375 
Q 6.984375 53.65625 15.1875 63.9375 
Q 23.390625 74.21875 37.203125 74.21875 
Q 40.921875 74.21875 44.703125 73.484375 
Q 48.484375 72.75 52.59375 71.296875 
z
" id="DejaVuSans-54"/>
      <path d="M 72.703125 32.078125 
Q 68.453125 32.078125 66.03125 28.46875 
Q 63.625 24.859375 63.625 18.40625 
Q 63.625 12.0625 66.03125 8.421875 
Q 68.453125 4.78125 72.703125 4.78125 
Q 76.859375 4.78125 79.265625 8.421875 
Q 81.6875 12.0625 81.6875 18.40625 
Q 81.6875 24.8125 79.265625 28.4375 
Q 76.859375 32.078125 72.703125 32.078125 
z
M 72.703125 38.28125 
Q 80.421875 38.28125 84.953125 32.90625 
Q 89.5 27.546875 89.5 18.40625 
Q 89.5 9.28125 84.9375 3.921875 
Q 80.375 -1.421875 72.703125 -1.421875 
Q 64.890625 -1.421875 60.34375 3.921875 
Q 55.8125 9.28125 55.8125 18.40625 
Q 55.8125 27.59375 60.375 32.9375 
Q 64.9375 38.28125 72.703125 38.28125 
z
M 22.3125 68.015625 
Q 18.109375 68.015625 15.6875 64.375 
Q 13.28125 60.75 13.28125 54.390625 
Q 13.28125 47.953125 15.671875 44.328125 
Q 18.0625 40.71875 22.3125 40.71875 
Q 26.5625 40.71875 28.96875 44.328125 
Q 31.390625 47.953125 31.390625 54.390625 
Q 31.390625 60.6875 28.953125 64.34375 
Q 26.515625 68.015625 22.3125 68.015625 
z
M 66.40625 74.21875 
L 74.21875 74.21875 
L 28.609375 -1.421875 
L 20.796875 -1.421875 
z
M 22.3125 74.21875 
Q 30.03125 74.21875 34.609375 68.875 
Q 39.203125 63.53125 39.203125 54.390625 
Q 39.203125 45.171875 34.640625 39.84375 
Q 30.078125 34.515625 22.3125 34.515625 
Q 14.546875 34.515625 10.03125 39.859375 
Q 5.515625 45.21875 5.515625 54.390625 
Q 5.515625 63.484375 10.046875 68.84375 
Q 14.59375 74.21875 22.3125 74.21875 
z
" id="DejaVuSans-37"/>
      <path d="M 9.421875 54.6875 
L 18.40625 54.6875 
L 18.40625 0 
L 9.421875 0 
z
M 9.421875 75.984375 
L 18.40625 75.984375 
L 18.40625 64.59375 
L 9.421875 64.59375 
z
" id="DejaVuSans-105"/>
      <path d="M 41.109375 46.296875 
Q 39.59375 47.171875 37.8125 47.578125 
Q 36.03125 48 33.890625 48 
Q 26.265625 48 22.1875 43.046875 
Q 18.109375 38.09375 18.109375 28.8125 
L 18.109375 0 
L 9.078125 0 
L 9.078125 54.6875 
L 18.109375 54.6875 
L 18.109375 46.1875 
Q 20.953125 51.171875 25.484375 53.578125 
Q 30.03125 56 36.53125 56 
Q 37.453125 56 38.578125 55.875 
Q 39.703125 55.765625 41.0625 55.515625 
z
" id="DejaVuSans-114"/>
      <path d="M 34.28125 27.484375 
Q 23.390625 27.484375 19.1875 25 
Q 14.984375 22.515625 14.984375 16.5 
Q 14.984375 11.71875 18.140625 8.90625 
Q 21.296875 6.109375 26.703125 6.109375 
Q 34.1875 6.109375 38.703125 11.40625 
Q 43.21875 16.703125 43.21875 25.484375 
L 43.21875 27.484375 
z
M 52.203125 31.203125 
L 52.203125 0 
L 43.21875 0 
L 43.21875 8.296875 
Q 40.140625 3.328125 35.546875 0.953125 
Q 30.953125 -1.421875 24.3125 -1.421875 
Q 15.921875 -1.421875 10.953125 3.296875 
Q 6 8.015625 6 15.921875 
Q 6 25.140625 12.171875 29.828125 
Q 18.359375 34.515625 30.609375 34.515625 
L 43.21875 34.515625 
L 43.21875 35.40625 
Q 43.21875 41.609375 39.140625 45 
Q 35.0625 48.390625 27.6875 48.390625 
Q 23 48.390625 18.546875 47.265625 
Q 14.109375 46.140625 10.015625 43.890625 
L 10.015625 52.203125 
Q 14.9375 54.109375 19.578125 55.046875 
Q 24.21875 56 28.609375 56 
Q 40.484375 56 46.34375 49.84375 
Q 52.203125 43.703125 52.203125 31.203125 
z
" id="DejaVuSans-97"/>
      <path d="M 8.015625 75.875 
L 15.828125 75.875 
Q 23.140625 64.359375 26.78125 53.3125 
Q 30.421875 42.28125 30.421875 31.390625 
Q 30.421875 20.453125 26.78125 9.375 
Q 23.140625 -1.703125 15.828125 -13.1875 
L 8.015625 -13.1875 
Q 14.5 -2 17.703125 9.0625 
Q 20.90625 20.125 20.90625 31.390625 
Q 20.90625 42.671875 17.703125 53.65625 
Q 14.5 64.65625 8.015625 75.875 
z
" id="DejaVuSans-41"/>
     </defs>
     <g transform="translate(145.353125 412.756563)scale(0.1 -0.1)">
      <use xlink:href="#DejaVuSans-67"/>
      <use x="69.824219" xlink:href="#DejaVuSans-111"/>
      <use x="131.005859" xlink:href="#DejaVuSans-109"/>
      <use x="228.417969" xlink:href="#DejaVuSans-112"/>
      <use x="291.894531" xlink:href="#DejaVuSans-111"/>
      <use x="353.076172" xlink:href="#DejaVuSans-110"/>
      <use x="416.455078" xlink:href="#DejaVuSans-101"/>
      <use x="477.978516" xlink:href="#DejaVuSans-110"/>
      <use x="541.357422" xlink:href="#DejaVuSans-116"/>
      <use x="580.566406" xlink:href="#DejaVuSans-32"/>
      <use x="612.353516" xlink:href="#DejaVuSans-48"/>
      <use x="675.976562" xlink:href="#DejaVuSans-32"/>
      <use x="707.763672" xlink:href="#DejaVuSans-40"/>
      <use x="746.777344" xlink:href="#DejaVuSans-55"/>
      <use x="810.400391" xlink:href="#DejaVuSans-50"/>
      <use x="874.023438" xlink:href="#DejaVuSans-46"/>
      <use x="905.810547" xlink:href="#DejaVuSans-57"/>
      <use x="969.433594" xlink:href="#DejaVuSans-54"/>
      <use x="1033.056641" xlink:href="#DejaVuSans-37"/>
      <use x="1128.076172" xlink:href="#DejaVuSans-32"/>
      <use x="1159.863281" xlink:href="#DejaVuSans-105"/>
      <use x="1187.646484" xlink:href="#DejaVuSans-110"/>
      <use x="1251.025391" xlink:href="#DejaVuSans-101"/>
      <use x="1312.548828" xlink:href="#DejaVuSans-114"/>
      <use x="1353.662109" xlink:href="#DejaVuSans-116"/>
      <use x="1392.871094" xlink:href="#DejaVuSans-105"/>
      <use x="1420.654297" xlink:href="#DejaVuSans-97"/>
      <use x="1481.933594" xlink:href="#DejaVuSans-41"/>
     </g>
    </g>
   </g>
   <g id="matplotlib.axis_2">
    <g id="ytick_1">
     <g id="line2d_8">
      <path clip-path="url(#pe5535e514d)" d="M 54 330.593965 
L 388.8 330.593965 
" style="fill:none;stroke:#b0b0b0;stroke-linecap:square;stroke-width:0.8;"/>
     </g>
     <g id="text_9">
      <!-- −2 -->
      <g transform="translate(32.257812 334.393184)scale(0.1 -0.1)">
       <use xlink:href="#DejaVuSans-8722"/>
       <use x="83.789062" xlink:href="#DejaVuSans-50"/>
      </g>
     </g>
    </g>
    <g id="ytick_2">
     <g id="line2d_9">
      <path clip-path="url(#pe5535e514d)" d="M 54 274.415308 
L 388.8 274.415308 
" style="fill:none;stroke:#b0b0b0;stroke-linecap:square;stroke-width:0.8;"/>
     </g>
     <g id="text_10">
      <!-- −1 -->
      <g transform="translate(32.257812 278.214527)scale(0.1 -0.1)">
       <use xlink:href="#DejaVuSans-8722"/>
       <use x="83.789062" xlink:href="#DejaVuSans-49"/>
      </g>
     </g>
    </g>
    <g id="ytick_3">
     <g id="line2d_10">
      <path clip-path="url(#pe5535e514d)" d="M 54 218.236651 
L 388.8 218.236651 
" style="fill:none;stroke:#b0b0b0;stroke-linecap:square;stroke-width:0.8;"/>
     </g>
     <g id="text_11">
      <!-- 0 -->
      <g transform="translate(40.6375 222.03587)scale(0.1 -0.1)">
       <use xlink:href="#DejaVuSans-48"/>
      </g>
     </g>
    </g>
    <g id="ytick_4">
     <g id="line2d_11">
      <path clip-path="url(#pe5535e514d)" d="M 54 162.057994 
L 388.8 162.057994 
" style="fill:none;stroke:#b0b0b0;stroke-linecap:square;stroke-width:0.8;"/>
     </g>
     <g id="text_12">
      <!-- 1 -->
      <g transform="translate(40.6375 165.857213)scale(0.1 -0.1)">
       <use xlink:href="#DejaVuSans-49"/>
      </g>
     </g>
    </g>
    <g id="ytick_5">
     <g id="line2d_12">
      <path clip-path="url(#pe5535e514d)" d="M 54 105.879337 
L 388.8 105.879337 
" style="fill:none;stroke:#b0b0b0;stroke-linecap:square;stroke-width:0.8;"/>
     </g>
     <g id="text_13">
      <!-- 2 -->
      <g transform="translate(40.6375 109.678556)scale(0.1 -0.1)">
       <use xlink:href="#DejaVuSans-50"/>
      </g>
     </g>
    </g>
    <g id="text_14">
     <!-- Component 1 (22.85% inertia) -->
     <defs>
      <path d="M 31.78125 34.625 
Q 24.75 34.625 20.71875 30.859375 
Q 16.703125 27.09375 16.703125 20.515625 
Q 16.703125 13.921875 20.71875 10.15625 
Q 24.75 6.390625 31.78125 6.390625 
Q 38.8125 6.390625 42.859375 10.171875 
Q 46.921875 13.96875 46.921875 20.515625 
Q 46.921875 27.09375 42.890625 30.859375 
Q 38.875 34.625 31.78125 34.625 
z
M 21.921875 38.8125 
Q 15.578125 40.375 12.03125 44.71875 
Q 8.5 49.078125 8.5 55.328125 
Q 8.5 64.0625 14.71875 69.140625 
Q 20.953125 74.21875 31.78125 74.21875 
Q 42.671875 74.21875 48.875 69.140625 
Q 55.078125 64.0625 55.078125 55.328125 
Q 55.078125 49.078125 51.53125 44.71875 
Q 48 40.375 41.703125 38.8125 
Q 48.828125 37.15625 52.796875 32.3125 
Q 56.78125 27.484375 56.78125 20.515625 
Q 56.78125 9.90625 50.3125 4.234375 
Q 43.84375 -1.421875 31.78125 -1.421875 
Q 19.734375 -1.421875 13.25 4.234375 
Q 6.78125 9.90625 6.78125 20.515625 
Q 6.78125 27.484375 10.78125 32.3125 
Q 14.796875 37.15625 21.921875 38.8125 
z
M 18.3125 54.390625 
Q 18.3125 48.734375 21.84375 45.5625 
Q 25.390625 42.390625 31.78125 42.390625 
Q 38.140625 42.390625 41.71875 45.5625 
Q 45.3125 48.734375 45.3125 54.390625 
Q 45.3125 60.0625 41.71875 63.234375 
Q 38.140625 66.40625 31.78125 66.40625 
Q 25.390625 66.40625 21.84375 63.234375 
Q 18.3125 60.0625 18.3125 54.390625 
z
" id="DejaVuSans-56"/>
      <path d="M 10.796875 72.90625 
L 49.515625 72.90625 
L 49.515625 64.59375 
L 19.828125 64.59375 
L 19.828125 46.734375 
Q 21.96875 47.46875 24.109375 47.828125 
Q 26.265625 48.1875 28.421875 48.1875 
Q 40.625 48.1875 47.75 41.5 
Q 54.890625 34.8125 54.890625 23.390625 
Q 54.890625 11.625 47.5625 5.09375 
Q 40.234375 -1.421875 26.90625 -1.421875 
Q 22.3125 -1.421875 17.546875 -0.640625 
Q 12.796875 0.140625 7.71875 1.703125 
L 7.71875 11.625 
Q 12.109375 9.234375 16.796875 8.0625 
Q 21.484375 6.890625 26.703125 6.890625 
Q 35.15625 6.890625 40.078125 11.328125 
Q 45.015625 15.765625 45.015625 23.390625 
Q 45.015625 31 40.078125 35.4375 
Q 35.15625 39.890625 26.703125 39.890625 
Q 22.75 39.890625 18.8125 39.015625 
Q 14.890625 38.140625 10.796875 36.28125 
z
" id="DejaVuSans-53"/>
     </defs>
     <g transform="translate(26.178125 294.206875)rotate(-90)scale(0.1 -0.1)">
      <use xlink:href="#DejaVuSans-67"/>
      <use x="69.824219" xlink:href="#DejaVuSans-111"/>
      <use x="131.005859" xlink:href="#DejaVuSans-109"/>
      <use x="228.417969" xlink:href="#DejaVuSans-112"/>
      <use x="291.894531" xlink:href="#DejaVuSans-111"/>
      <use x="353.076172" xlink:href="#DejaVuSans-110"/>
      <use x="416.455078" xlink:href="#DejaVuSans-101"/>
      <use x="477.978516" xlink:href="#DejaVuSans-110"/>
      <use x="541.357422" xlink:href="#DejaVuSans-116"/>
      <use x="580.566406" xlink:href="#DejaVuSans-32"/>
      <use x="612.353516" xlink:href="#DejaVuSans-49"/>
      <use x="675.976562" xlink:href="#DejaVuSans-32"/>
      <use x="707.763672" xlink:href="#DejaVuSans-40"/>
      <use x="746.777344" xlink:href="#DejaVuSans-50"/>
      <use x="810.400391" xlink:href="#DejaVuSans-50"/>
      <use x="874.023438" xlink:href="#DejaVuSans-46"/>
      <use x="905.810547" xlink:href="#DejaVuSans-56"/>
      <use x="969.433594" xlink:href="#DejaVuSans-53"/>
      <use x="1033.056641" xlink:href="#DejaVuSans-37"/>
      <use x="1128.076172" xlink:href="#DejaVuSans-32"/>
      <use x="1159.863281" xlink:href="#DejaVuSans-105"/>
      <use x="1187.646484" xlink:href="#DejaVuSans-110"/>
      <use x="1251.025391" xlink:href="#DejaVuSans-101"/>
      <use x="1312.548828" xlink:href="#DejaVuSans-114"/>
      <use x="1353.662109" xlink:href="#DejaVuSans-116"/>
      <use x="1392.871094" xlink:href="#DejaVuSans-105"/>
      <use x="1420.654297" xlink:href="#DejaVuSans-97"/>
      <use x="1481.933594" xlink:href="#DejaVuSans-41"/>
     </g>
    </g>
   </g>
   <g id="line2d_13">
    <path clip-path="url(#pe5535e514d)" d="M 54 218.236651 
L 388.8 218.236651 
" style="fill:none;stroke:#404040;stroke-linecap:square;stroke-opacity:0.6;stroke-width:1.2;"/>
   </g>
   <g id="line2d_14">
    <path clip-path="url(#pe5535e514d)" d="M 207.491719 384.48 
L 207.491719 51.84 
" style="fill:none;stroke:#404040;stroke-linecap:square;stroke-opacity:0.6;stroke-width:1.2;"/>
   </g>
   <g id="patch_6">
    <path d="M 54 384.48 
L 54 51.84 
" style="fill:none;stroke:#000000;stroke-linecap:square;stroke-linejoin:miter;stroke-width:0.8;"/>
   </g>
   <g id="patch_7">
    <path d="M 388.8 384.48 
L 388.8 51.84 
" style="fill:none;stroke:#000000;stroke-linecap:square;stroke-linejoin:miter;stroke-width:0.8;"/>
   </g>
   <g id="patch_8">
    <path d="M 54 384.48 
L 388.8 384.48 
" style="fill:none;stroke:#000000;stroke-linecap:square;stroke-linejoin:miter;stroke-width:0.8;"/>
   </g>
   <g id="patch_9">
    <path d="M 54 51.84 
L 388.8 51.84 
" style="fill:none;stroke:#000000;stroke-linecap:square;stroke-linejoin:miter;stroke-width:0.8;"/>
   </g>
   <g id="text_15">
    <!-- Row principal coordinates -->
    <defs>
     <path d="M 44.390625 34.1875 
Q 47.5625 33.109375 50.5625 29.59375 
Q 53.5625 26.078125 56.59375 19.921875 
L 66.609375 0 
L 56 0 
L 46.6875 18.703125 
Q 43.0625 26.03125 39.671875 28.421875 
Q 36.28125 30.8125 30.421875 30.8125 
L 19.671875 30.8125 
L 19.671875 0 
L 9.8125 0 
L 9.8125 72.90625 
L 32.078125 72.90625 
Q 44.578125 72.90625 50.734375 67.671875 
Q 56.890625 62.453125 56.890625 51.90625 
Q 56.890625 45.015625 53.6875 40.46875 
Q 50.484375 35.9375 44.390625 34.1875 
z
M 19.671875 64.796875 
L 19.671875 38.921875 
L 32.078125 38.921875 
Q 39.203125 38.921875 42.84375 42.21875 
Q 46.484375 45.515625 46.484375 51.90625 
Q 46.484375 58.296875 42.84375 61.546875 
Q 39.203125 64.796875 32.078125 64.796875 
z
" id="DejaVuSans-82"/>
     <path d="M 4.203125 54.6875 
L 13.1875 54.6875 
L 24.421875 12.015625 
L 35.59375 54.6875 
L 46.1875 54.6875 
L 57.421875 12.015625 
L 68.609375 54.6875 
L 77.59375 54.6875 
L 63.28125 0 
L 52.6875 0 
L 40.921875 44.828125 
L 29.109375 0 
L 18.5 0 
z
" id="DejaVuSans-119"/>
     <path d="M 48.78125 52.59375 
L 48.78125 44.1875 
Q 44.96875 46.296875 41.140625 47.34375 
Q 37.3125 48.390625 33.40625 48.390625 
Q 24.65625 48.390625 19.8125 42.84375 
Q 14.984375 37.3125 14.984375 27.296875 
Q 14.984375 17.28125 19.8125 11.734375 
Q 24.65625 6.203125 33.40625 6.203125 
Q 37.3125 6.203125 41.140625 7.25 
Q 44.96875 8.296875 48.78125 10.40625 
L 48.78125 2.09375 
Q 45.015625 0.34375 40.984375 -0.53125 
Q 36.96875 -1.421875 32.421875 -1.421875 
Q 20.0625 -1.421875 12.78125 6.34375 
Q 5.515625 14.109375 5.515625 27.296875 
Q 5.515625 40.671875 12.859375 48.328125 
Q 20.21875 56 33.015625 56 
Q 37.15625 56 41.109375 55.140625 
Q 45.0625 54.296875 48.78125 52.59375 
z
" id="DejaVuSans-99"/>
     <path d="M 9.421875 75.984375 
L 18.40625 75.984375 
L 18.40625 0 
L 9.421875 0 
z
" id="DejaVuSans-108"/>
     <path d="M 45.40625 46.390625 
L 45.40625 75.984375 
L 54.390625 75.984375 
L 54.390625 0 
L 45.40625 0 
L 45.40625 8.203125 
Q 42.578125 3.328125 38.25 0.953125 
Q 33.9375 -1.421875 27.875 -1.421875 
Q 17.96875 -1.421875 11.734375 6.484375 
Q 5.515625 14.40625 5.515625 27.296875 
Q 5.515625 40.1875 11.734375 48.09375 
Q 17.96875 56 27.875 56 
Q 33.9375 56 38.25 53.625 
Q 42.578125 51.265625 45.40625 46.390625 
z
M 14.796875 27.296875 
Q 14.796875 17.390625 18.875 11.75 
Q 22.953125 6.109375 30.078125 6.109375 
Q 37.203125 6.109375 41.296875 11.75 
Q 45.40625 17.390625 45.40625 27.296875 
Q 45.40625 37.203125 41.296875 42.84375 
Q 37.203125 48.484375 30.078125 48.484375 
Q 22.953125 48.484375 18.875 42.84375 
Q 14.796875 37.203125 14.796875 27.296875 
z
" id="DejaVuSans-100"/>
     <path d="M 44.28125 53.078125 
L 44.28125 44.578125 
Q 40.484375 46.53125 36.375 47.5 
Q 32.28125 48.484375 27.875 48.484375 
Q 21.1875 48.484375 17.84375 46.4375 
Q 14.5 44.390625 14.5 40.28125 
Q 14.5 37.15625 16.890625 35.375 
Q 19.28125 33.59375 26.515625 31.984375 
L 29.59375 31.296875 
Q 39.15625 29.25 43.1875 25.515625 
Q 47.21875 21.78125 47.21875 15.09375 
Q 47.21875 7.46875 41.1875 3.015625 
Q 35.15625 -1.421875 24.609375 -1.421875 
Q 20.21875 -1.421875 15.453125 -0.5625 
Q 10.6875 0.296875 5.421875 2 
L 5.421875 11.28125 
Q 10.40625 8.6875 15.234375 7.390625 
Q 20.0625 6.109375 24.8125 6.109375 
Q 31.15625 6.109375 34.5625 8.28125 
Q 37.984375 10.453125 37.984375 14.40625 
Q 37.984375 18.0625 35.515625 20.015625 
Q 33.0625 21.96875 24.703125 23.78125 
L 21.578125 24.515625 
Q 13.234375 26.265625 9.515625 29.90625 
Q 5.8125 33.546875 5.8125 39.890625 
Q 5.8125 47.609375 11.28125 51.796875 
Q 16.75 56 26.8125 56 
Q 31.78125 56 36.171875 55.265625 
Q 40.578125 54.546875 44.28125 53.078125 
z
" id="DejaVuSans-115"/>
    </defs>
    <g transform="translate(143.746875 45.84)scale(0.12 -0.12)">
     <use xlink:href="#DejaVuSans-82"/>
     <use x="69.419922" xlink:href="#DejaVuSans-111"/>
     <use x="130.601562" xlink:href="#DejaVuSans-119"/>
     <use x="212.388672" xlink:href="#DejaVuSans-32"/>
     <use x="244.175781" xlink:href="#DejaVuSans-112"/>
     <use x="307.652344" xlink:href="#DejaVuSans-114"/>
     <use x="348.765625" xlink:href="#DejaVuSans-105"/>
     <use x="376.548828" xlink:href="#DejaVuSans-110"/>
     <use x="439.927734" xlink:href="#DejaVuSans-99"/>
     <use x="494.908203" xlink:href="#DejaVuSans-105"/>
     <use x="522.691406" xlink:href="#DejaVuSans-112"/>
     <use x="586.167969" xlink:href="#DejaVuSans-97"/>
     <use x="647.447266" xlink:href="#DejaVuSans-108"/>
     <use x="675.230469" xlink:href="#DejaVuSans-32"/>
     <use x="707.017578" xlink:href="#DejaVuSans-99"/>
     <use x="761.998047" xlink:href="#DejaVuSans-111"/>
     <use x="823.179688" xlink:href="#DejaVuSans-111"/>
     <use x="884.361328" xlink:href="#DejaVuSans-114"/>
     <use x="925.458984" xlink:href="#DejaVuSans-100"/>
     <use x="988.935547" xlink:href="#DejaVuSans-105"/>
     <use x="1016.71875" xlink:href="#DejaVuSans-110"/>
     <use x="1080.097656" xlink:href="#DejaVuSans-97"/>
     <use x="1141.376953" xlink:href="#DejaVuSans-116"/>
     <use x="1180.585938" xlink:href="#DejaVuSans-101"/>
     <use x="1242.109375" xlink:href="#DejaVuSans-115"/>
    </g>
   </g>
   <g id="legend_1">
    <g id="patch_10">
     <path d="M 300.09375 379.48 
L 381.8 379.48 
Q 383.8 379.48 383.8 377.48 
L 383.8 334.445625 
Q 383.8 332.445625 381.8 332.445625 
L 300.09375 332.445625 
Q 298.09375 332.445625 298.09375 334.445625 
L 298.09375 377.48 
Q 298.09375 379.48 300.09375 379.48 
z
" style="fill:#ffffff;opacity:0.8;stroke:#cccccc;stroke-linejoin:miter;"/>
    </g>
    <g id="PathCollection_4">
     <g>
      <use style="fill:#1f77b4;stroke:#1f77b4;" x="312.09375" xlink:href="#m6ee607c72c" y="341.419062"/>
     </g>
    </g>
    <g id="text_16">
     <!-- Setosa -->
     <defs>
      <path d="M 53.515625 70.515625 
L 53.515625 60.890625 
Q 47.90625 63.578125 42.921875 64.890625 
Q 37.9375 66.21875 33.296875 66.21875 
Q 25.25 66.21875 20.875 63.09375 
Q 16.5 59.96875 16.5 54.203125 
Q 16.5 49.359375 19.40625 46.890625 
Q 22.3125 44.4375 30.421875 42.921875 
L 36.375 41.703125 
Q 47.40625 39.59375 52.65625 34.296875 
Q 57.90625 29 57.90625 20.125 
Q 57.90625 9.515625 50.796875 4.046875 
Q 43.703125 -1.421875 29.984375 -1.421875 
Q 24.8125 -1.421875 18.96875 -0.25 
Q 13.140625 0.921875 6.890625 3.21875 
L 6.890625 13.375 
Q 12.890625 10.015625 18.65625 8.296875 
Q 24.421875 6.59375 29.984375 6.59375 
Q 38.421875 6.59375 43.015625 9.90625 
Q 47.609375 13.234375 47.609375 19.390625 
Q 47.609375 24.75 44.3125 27.78125 
Q 41.015625 30.8125 33.5 32.328125 
L 27.484375 33.5 
Q 16.453125 35.6875 11.515625 40.375 
Q 6.59375 45.0625 6.59375 53.421875 
Q 6.59375 63.09375 13.40625 68.65625 
Q 20.21875 74.21875 32.171875 74.21875 
Q 37.3125 74.21875 42.625 73.28125 
Q 47.953125 72.359375 53.515625 70.515625 
z
" id="DejaVuSans-83"/>
     </defs>
     <g transform="translate(330.09375 344.044062)scale(0.1 -0.1)">
      <use xlink:href="#DejaVuSans-83"/>
      <use x="63.476562" xlink:href="#DejaVuSans-101"/>
      <use x="125" xlink:href="#DejaVuSans-116"/>
      <use x="164.208984" xlink:href="#DejaVuSans-111"/>
      <use x="225.390625" xlink:href="#DejaVuSans-115"/>
      <use x="277.490234" xlink:href="#DejaVuSans-97"/>
     </g>
    </g>
    <g id="PathCollection_5">
     <g>
      <use style="fill:#ff7f0e;stroke:#ff7f0e;" x="312.09375" xlink:href="#m76966f4cd6" y="356.097188"/>
     </g>
    </g>
    <g id="text_17">
     <!-- Versicolor -->
     <defs>
      <path d="M 28.609375 0 
L 0.78125 72.90625 
L 11.078125 72.90625 
L 34.1875 11.53125 
L 57.328125 72.90625 
L 67.578125 72.90625 
L 39.796875 0 
z
" id="DejaVuSans-86"/>
     </defs>
     <g transform="translate(330.09375 358.722188)scale(0.1 -0.1)">
      <use xlink:href="#DejaVuSans-86"/>
      <use x="68.298828" xlink:href="#DejaVuSans-101"/>
      <use x="129.822266" xlink:href="#DejaVuSans-114"/>
      <use x="170.935547" xlink:href="#DejaVuSans-115"/>
      <use x="223.035156" xlink:href="#DejaVuSans-105"/>
      <use x="250.818359" xlink:href="#DejaVuSans-99"/>
      <use x="305.798828" xlink:href="#DejaVuSans-111"/>
      <use x="366.980469" xlink:href="#DejaVuSans-108"/>
      <use x="394.763672" xlink:href="#DejaVuSans-111"/>
      <use x="455.945312" xlink:href="#DejaVuSans-114"/>
     </g>
    </g>
    <g id="PathCollection_6">
     <g>
      <use style="fill:#2ca02c;stroke:#2ca02c;" x="312.09375" xlink:href="#m4ed9f9510c" y="370.775312"/>
     </g>
    </g>
    <g id="text_18">
     <!-- Virginica -->
     <defs>
      <path d="M 45.40625 27.984375 
Q 45.40625 37.75 41.375 43.109375 
Q 37.359375 48.484375 30.078125 48.484375 
Q 22.859375 48.484375 18.828125 43.109375 
Q 14.796875 37.75 14.796875 27.984375 
Q 14.796875 18.265625 18.828125 12.890625 
Q 22.859375 7.515625 30.078125 7.515625 
Q 37.359375 7.515625 41.375 12.890625 
Q 45.40625 18.265625 45.40625 27.984375 
z
M 54.390625 6.78125 
Q 54.390625 -7.171875 48.1875 -13.984375 
Q 42 -20.796875 29.203125 -20.796875 
Q 24.46875 -20.796875 20.265625 -20.09375 
Q 16.0625 -19.390625 12.109375 -17.921875 
L 12.109375 -9.1875 
Q 16.0625 -11.328125 19.921875 -12.34375 
Q 23.78125 -13.375 27.78125 -13.375 
Q 36.625 -13.375 41.015625 -8.765625 
Q 45.40625 -4.15625 45.40625 5.171875 
L 45.40625 9.625 
Q 42.625 4.78125 38.28125 2.390625 
Q 33.9375 0 27.875 0 
Q 17.828125 0 11.671875 7.65625 
Q 5.515625 15.328125 5.515625 27.984375 
Q 5.515625 40.671875 11.671875 48.328125 
Q 17.828125 56 27.875 56 
Q 33.9375 56 38.28125 53.609375 
Q 42.625 51.21875 45.40625 46.390625 
L 45.40625 54.6875 
L 54.390625 54.6875 
z
" id="DejaVuSans-103"/>
     </defs>
     <g transform="translate(330.09375 373.400312)scale(0.1 -0.1)">
      <use xlink:href="#DejaVuSans-86"/>
      <use x="68.376953" xlink:href="#DejaVuSans-105"/>
      <use x="96.160156" xlink:href="#DejaVuSans-114"/>
      <use x="137.257812" xlink:href="#DejaVuSans-103"/>
      <use x="200.734375" xlink:href="#DejaVuSans-105"/>
      <use x="228.517578" xlink:href="#DejaVuSans-110"/>
      <use x="291.896484" xlink:href="#DejaVuSans-105"/>
      <use x="319.679688" xlink:href="#DejaVuSans-99"/>
      <use x="374.660156" xlink:href="#DejaVuSans-97"/>
     </g>
    </g>
   </g>
  </g>
 </g>
 <defs>
  <clipPath id="pe5535e514d">
   <rect height="332.64" width="334.8" x="54" y="51.84"/>
  </clipPath>
 </defs>
</svg>
