<svg xmlns="http://www.w3.org/2000/svg" xmlns:xlink="http://www.w3.org/1999/xlink" version="1.1" class="marks" width="533" height="347" viewBox="0 0 533 347"><rect width="533" height="347" fill="white"/><g fill="none" stroke-miterlimit="10" transform="translate(47,10)"><g class="mark-group role-frame root" role="graphics-object" aria-roledescription="group mark container"><g transform="translate(0,0)"><path class="background" aria-hidden="true" d="M0.5,0.5h400v300h-400Z" stroke="#ddd"/><g><g class="mark-group role-axis" aria-hidden="true"><g transform="translate(0.5,300.5)"><path class="background" aria-hidden="true" d="M0,0h0v0h0Z" pointer-events="none"/><g><g class="mark-rule role-axis-grid" pointer-events="none"><line transform="translate(0,-300)" x2="0" y2="300" stroke="#ddd" stroke-width="1" opacity="1"/><line transform="translate(36,-300)" x2="0" y2="300" stroke="#ddd" stroke-width="1" opacity="1"/><line transform="translate(73,-300)" x2="0" y2="300" stroke="#ddd" stroke-width="1" opacity="1"/><line transform="translate(109,-300)" x2="0" y2="300" stroke="#ddd" stroke-width="1" opacity="1"/><line transform="translate(145,-300)" x2="0" y2="300" stroke="#ddd" stroke-width="1" opacity="1"/><line transform="translate(182,-300)" x2="0" y2="300" stroke="#ddd" stroke-width="1" opacity="1"/><line transform="translate(218,-300)" x2="0" y2="300" stroke="#ddd" stroke-width="1" opacity="1"/><line transform="translate(255,-300)" x2="0" y2="300" stroke="#ddd" stroke-width="1" opacity="1"/><line transform="translate(291,-300)" x2="0" y2="300" stroke="#ddd" stroke-width="1" opacity="1"/><line transform="translate(327,-300)" x2="0" y2="300" stroke="#ddd" stroke-width="1" opacity="1"/><line transform="translate(364,-300)" x2="0" y2="300" stroke="#ddd" stroke-width="1" opacity="1"/><line transform="translate(400,-300)" x2="0" y2="300" stroke="#ddd" stroke-width="1" opacity="1"/></g></g><path class="foreground" aria-hidden="true" d="" pointer-events="none" display="none"/></g></g><g class="mark-group role-axis" aria-hidden="true"><g transform="translate(0.5,0.5)"><path class="background" aria-hidden="true" d="M0,0h0v0h0Z" pointer-events="none"/><g><g class="mark-rule role-axis-grid" pointer-events="none"><line transform="translate(0,300)" x2="400" y2="0" stroke="#ddd" stroke-width="1" opacity="1"/><line transform="translate(0,273)" x2="400" y2="0" stroke="#ddd" stroke-width="1" opacity="1"/><line transform="translate(0,245)" x2="400" y2="0" stroke="#ddd" stroke-width="1" opacity="1"/><line transform="translate(0,218)" x2="400" y2="0" stroke="#ddd" stroke-width="1" opacity="1"/><line transform="translate(0,191)" x2="400" y2="0" stroke="#ddd" stroke-width="1" opacity="1"/><line transform="translate(0,164)" x2="400" y2="0" stroke="#ddd" stroke-width="1" opacity="1"/><line transform="translate(0,136)" x2="400" y2="0" stroke="#ddd" stroke-width="1" opacity="1"/><line transform="translate(0,109)" x2="400" y2="0" stroke="#ddd" stroke-width="1" opacity="1"/><line transform="translate(0,82)" x2="400" y2="0" stroke="#ddd" stroke-width="1" opacity="1"/><line transform="translate(0,55)" x2="400" y2="0" stroke="#ddd" stroke-width="1" opacity="1"/><line transform="translate(0,27)" x2="400" y2="0" stroke="#ddd" stroke-width="1" opacity="1"/><line transform="translate(0,0)" x2="400" y2="0" stroke="#ddd" stroke-width="1" opacity="1"/></g></g><path class="foreground" aria-hidden="true" d="" pointer-events="none" display="none"/></g></g><g class="mark-group role-axis" role="graphics-symbol" aria-roledescription="axis" aria-label="X-axis titled 'component 0 — 31.14%' for a linear scale with values from −6 to 5"><g transform="translate(0.5,300.5)"><path class="background" aria-hidden="true" d="M0,0h0v0h0Z" pointer-events="none"/><g><g class="mark-rule role-axis-tick" pointer-events="none"><line transform="translate(0,0)" x2="0" y2="5" stroke="#888" stroke-width="1" opacity="1"/><line transform="translate(36,0)" x2="0" y2="5" stroke="#888" stroke-width="1" opacity="1"/><line transform="translate(73,0)" x2="0" y2="5" stroke="#888" stroke-width="1" opacity="1"/><line transform="translate(109,0)" x2="0" y2="5" stroke="#888" stroke-width="1" opacity="1"/><line transform="translate(145,0)" x2="0" y2="5" stroke="#888" stroke-width="1" opacity="1"/><line transform="translate(182,0)" x2="0" y2="5" stroke="#888" stroke-width="1" opacity="1"/><line transform="translate(218,0)" x2="0" y2="5" stroke="#888" stroke-width="1" opacity="1"/><line transform="translate(255,0)" x2="0" y2="5" stroke="#888" stroke-width="1" opacity="1"/><line transform="translate(291,0)" x2="0" y2="5" stroke="#888" stroke-width="1" opacity="1"/><line transform="translate(327,0)" x2="0" y2="5" stroke="#888" stroke-width="1" opacity="1"/><line transform="translate(364,0)" x2="0" y2="5" stroke="#888" stroke-width="1" opacity="1"/><line transform="translate(400,0)" x2="0" y2="5" stroke="#888" stroke-width="1" opacity="1"/></g><g class="mark-text role-axis-label" pointer-events="none"><text text-anchor="start" transform="translate(0,15)" font-family="sans-serif" font-size="10px" fill="#000" opacity="1">−6</text><text text-anchor="middle" transform="translate(36.36363636363637,15)" font-family="sans-serif" font-size="10px" fill="#000" opacity="1">−5</text><text text-anchor="middle" transform="translate(72.72727272727273,15)" font-family="sans-serif" font-size="10px" fill="#000" opacity="1">−4</text><text text-anchor="middle" transform="translate(109.09090909090908,15)" font-family="sans-serif" font-size="10px" fill="#000" opacity="1">−3</text><text text-anchor="middle" transform="translate(145.45454545454547,15)" font-family="sans-serif" font-size="10px" fill="#000" opacity="1">−2</text><text text-anchor="middle" transform="translate(181.8181818181818,15)" font-family="sans-serif" font-size="10px" fill="#000" opacity="1">−1</text><text text-anchor="middle" transform="translate(218.18181818181816,15)" font-family="sans-serif" font-size="10px" fill="#000" opacity="1">0</text><text text-anchor="middle" transform="translate(254.54545454545453,15)" font-family="sans-serif" font-size="10px" fill="#000" opacity="1">1</text><text text-anchor="middle" transform="translate(290.90909090909093,15)" font-family="sans-serif" font-size="10px" fill="#000" opacity="1">2</text><text text-anchor="middle" transform="translate(327.2727272727273,15)" font-family="sans-serif" font-size="10px" fill="#000" opacity="1">3</text><text text-anchor="middle" transform="translate(363.6363636363636,15)" font-family="sans-serif" font-size="10px" fill="#000" opacity="1">4</text><text text-anchor="end" transform="translate(400,15)" font-family="sans-serif" font-size="10px" fill="#000" opacity="1">5</text></g><g class="mark-rule role-axis-domain" pointer-events="none"><line transform="translate(0,0)" x2="400" y2="0" stroke="#888" stroke-width="1" opacity="1"/></g><g class="mark-text role-axis-title" pointer-events="none"><text text-anchor="middle" transform="translate(200,30)" font-family="sans-serif" font-size="11px" font-weight="bold" fill="#000" opacity="1">component 0 — 31.14%</text></g></g><path class="foreground" aria-hidden="true" d="" pointer-events="none" display="none"/></g></g><g class="mark-group role-axis" role="graphics-symbol" aria-roledescription="axis" aria-label="Y-axis titled 'component 1 — 20.27%' for a linear scale with values from −3 to 3"><g transform="translate(0.5,0.5)"><path class="background" aria-hidden="true" d="M0,0h0v0h0Z" pointer-events="none"/><g><g class="mark-rule role-axis-tick" pointer-events="none"><line transform="translate(0,300)" x2="-5" y2="0" stroke="#888" stroke-width="1" opacity="1"/><line transform="translate(0,273)" x2="-5" y2="0" stroke="#888" stroke-width="1" opacity="1"/><line transform="translate(0,245)" x2="-5" y2="0" stroke="#888" stroke-width="1" opacity="1"/><line transform="translate(0,218)" x2="-5" y2="0" stroke="#888" stroke-width="1" opacity="1"/><line transform="translate(0,191)" x2="-5" y2="0" stroke="#888" stroke-width="1" opacity="1"/><line transform="translate(0,164)" x2="-5" y2="0" stroke="#888" stroke-width="1" opacity="1"/><line transform="translate(0,136)" x2="-5" y2="0" stroke="#888" stroke-width="1" opacity="1"/><line transform="translate(0,109)" x2="-5" y2="0" stroke="#888" stroke-width="1" opacity="1"/><line transform="translate(0,82)" x2="-5" y2="0" stroke="#888" stroke-width="1" opacity="1"/><line transform="translate(0,55)" x2="-5" y2="0" stroke="#888" stroke-width="1" opacity="1"/><line transform="translate(0,27)" x2="-5" y2="0" stroke="#888" stroke-width="1" opacity="1"/><line transform="translate(0,0)" x2="-5" y2="0" stroke="#888" stroke-width="1" opacity="1"/></g><g class="mark-text role-axis-label" pointer-events="none"><text text-anchor="end" transform="translate(-7,303)" font-family="sans-serif" font-size="10px" fill="#000" opacity="1">−2.5</text><text text-anchor="end" transform="translate(-7,275.7272727272727)" font-family="sans-serif" font-size="10px" fill="#000" opacity="1">−2.0</text><text text-anchor="end" transform="translate(-7,248.45454545454544)" font-family="sans-serif" font-size="10px" fill="#000" opacity="1">−1.5</text><text text-anchor="end" transform="translate(-7,221.1818181818182)" font-family="sans-serif" font-size="10px" fill="#000" opacity="1">−1.0</text><text text-anchor="end" transform="translate(-7,193.9090909090909)" font-family="sans-serif" font-size="10px" fill="#000" opacity="1">−0.5</text><text text-anchor="end" transform="translate(-7,166.63636363636363)" font-family="sans-serif" font-size="10px" fill="#000" opacity="1">0.0</text><text text-anchor="end" transform="translate(-7,139.36363636363637)" font-family="sans-serif" font-size="10px" fill="#000" opacity="1">0.5</text><text text-anchor="end" transform="translate(-7,112.0909090909091)" font-family="sans-serif" font-size="10px" fill="#000" opacity="1">1.0</text><text text-anchor="end" transform="translate(-7,84.81818181818181)" font-family="sans-serif" font-size="10px" fill="#000" opacity="1">1.5</text><text text-anchor="end" transform="translate(-7,57.54545454545453)" font-family="sans-serif" font-size="10px" fill="#000" opacity="1">2.0</text><text text-anchor="end" transform="translate(-7,30.27272727272728)" font-family="sans-serif" font-size="10px" fill="#000" opacity="1">2.5</text><text text-anchor="end" transform="translate(-7,3)" font-family="sans-serif" font-size="10px" fill="#000" opacity="1">3.0</text></g><g class="mark-rule role-axis-domain" pointer-events="none"><line transform="translate(0,300)" x2="0" y2="-300" stroke="#888" stroke-width="1" opacity="1"/></g><g class="mark-text role-axis-title" pointer-events="none"><text text-anchor="middle" transform="translate(-30.7412109375,150) rotate(-90) translate(0,-2)" font-family="sans-serif" font-size="11px" font-weight="bold" fill="#000" opacity="1">component 1 — 20.27%</text></g></g><path class="foreground" aria-hidden="true" d="" pointer-events="none" display="none"/></g></g><g class="mark-symbol role-mark layer_0_marks" clip-path="url(#clip1)" role="graphics-object" aria-roledescription="symbol mark container"><path aria-label="competition: Decastar; athlete: Sebrle; component 0: −1.31479290105; component 1: −1.43855834894" role="graphics-symbol" aria-roledescription="circle" transform="translate(170.3711672344609,242.10318266967147)" d="M3.536,0A3.536,3.536,0,1,1,-3.536,0A3.536,3.536,0,1,1,3.536,0" fill="#4c78a8" stroke-width="2" opacity="0.7"/><path aria-label="competition: Decastar; athlete: Clay; component 0: −2.66201255578; component 1: −1.57848179467" role="graphics-symbol" aria-roledescription="circle" transform="translate(121.38136160805315,249.73537061841645)" d="M3.536,0A3.536,3.536,0,1,1,-3.536,0A3.536,3.536,0,1,1,3.536,0" fill="#4c78a8" stroke-width="2" opacity="0.7"/><path aria-label="competition: Decastar; athlete: Karpov; component 0: −2.69187317618; component 1: −0.0516357497549" role="graphics-symbol" aria-roledescription="circle" transform="translate(120.29552086633817,166.4528590775395)" d="M3.536,0A3.536,3.536,0,1,1,-3.536,0A3.536,3.536,0,1,1,3.536,0" fill="#4c78a8" stroke-width="2" opacity="0.7"/><path aria-label="competition: Decastar; athlete: Bernard; component 0: 0.205941186143; component 1: −1.3879190308" role="graphics-symbol" aria-roledescription="circle" transform="translate(225.67058858701077,239.34103804346793)" d="M3.536,0A3.536,3.536,0,1,1,-3.536,0A3.536,3.536,0,1,1,3.536,0" fill="#4c78a8" stroke-width="2" opacity="0.7"/><path aria-label="competition: Decastar; athlete: Yurkov; component 0: 0.811251800075; component 1: −1.00888749615" role="graphics-symbol" aria-roledescription="circle" transform="translate(247.68188363908422,218.66659069923975)" d="M3.536,0A3.536,3.536,0,1,1,-3.536,0A3.536,3.536,0,1,1,3.536,0" fill="#4c78a8" stroke-width="2" opacity="0.7"/><path aria-label="competition: Decastar; athlete: Warners; component 0: −1.13635263346; component 1: 0.972792759983" role="graphics-symbol" aria-roledescription="circle" transform="translate(176.8599042379211,110.574940364582)" d="M3.536,0A3.536,3.536,0,1,1,-3.536,0A3.536,3.536,0,1,1,3.536,0" fill="#4c78a8" stroke-width="2" opacity="0.7"/><path aria-label="competition: Decastar; athlete: Zsivoczky; component 0: −0.767542939884; component 1: 2.58732292609" role="graphics-symbol" aria-roledescription="circle" transform="translate(190.27116582239634,22.509658576971937)" d="M3.536,0A3.536,3.536,0,1,1,-3.536,0A3.536,3.536,0,1,1,3.536,0" fill="#4c78a8" stroke-width="2" opacity="0.7"/><path aria-label="competition: Decastar; athlete: Mcmullen; component 0: −1.36943177799; component 1: 1.56977169083" role="graphics-symbol" aria-roledescription="circle" transform="translate(168.38429898209455,78.01245322736169)" d="M3.536,0A3.536,3.536,0,1,1,-3.536,0A3.536,3.536,0,1,1,3.536,0" fill="#4c78a8" stroke-width="2" opacity="0.7"/><path aria-label="competition: Decastar; athlete: Martineau; component 0: 2.17306781163; component 1: 0.0658653262392" role="graphics-symbol" aria-roledescription="circle" transform="translate(297.20246587742093,160.0437094778641)" d="M3.536,0A3.536,3.536,0,1,1,-3.536,0A3.536,3.536,0,1,1,3.536,0" fill="#4c78a8" stroke-width="2" opacity="0.7"/><path aria-label="competition: Decastar; athlete: Hernu; component 0: 0.892302122092; component 1: −1.35445297518" role="graphics-symbol" aria-roledescription="circle" transform="translate(250.62916807607576,237.51561682809935)" d="M3.536,0A3.536,3.536,0,1,1,-3.536,0A3.536,3.536,0,1,1,3.536,0" fill="#4c78a8" stroke-width="2" opacity="0.7"/><path aria-label="competition: Decastar; athlete: Barras; component 0: 0.680865786872; component 1: 0.608605435008" role="graphics-symbol" aria-roledescription="circle" transform="translate(242.9405740680771,130.4397035450084)" d="M3.536,0A3.536,3.536,0,1,1,-3.536,0A3.536,3.536,0,1,1,3.536,0" fill="#4c78a8" stroke-width="2" opacity="0.7"/><path aria-label="competition: Decastar; athlete: Nool; component 0: 2.05115586085; component 1: 2.24117829614" role="graphics-symbol" aria-roledescription="circle" transform="translate(292.76930403073436,41.390274755949996)" d="M3.536,0A3.536,3.536,0,1,1,-3.536,0A3.536,3.536,0,1,1,3.536,0" fill="#4c78a8" stroke-width="2" opacity="0.7"/><path aria-label="competition: Decastar; athlete: Bourguignon; component 0: 3.12742141668; component 1: −1.22560103879" role="graphics-symbol" aria-roledescription="circle" transform="translate(331.9062333339669,230.4873293885565)" d="M3.536,0A3.536,3.536,0,1,1,-3.536,0A3.536,3.536,0,1,1,3.536,0" fill="#4c78a8" stroke-width="2" opacity="0.7"/><path aria-label="competition: OlympicG; athlete: Sebrle; component 0: −3.98887451198; component 1: −1.9048156646" role="graphics-symbol" aria-roledescription="circle" transform="translate(73.13183592811488,267.53539988734735)" d="M3.536,0A3.536,3.536,0,1,1,-3.536,0A3.536,3.536,0,1,1,3.536,0" fill="#f58518" stroke-width="2" opacity="0.7"/><path aria-label="competition: OlympicG; athlete: Clay; component 0: −4.29245196966; component 1: −1.5947494615" role="graphics-symbol" aria-roledescription="circle" transform="translate(62.092655648765025,250.62269790012067)" d="M3.536,0A3.536,3.536,0,1,1,-3.536,0A3.536,3.536,0,1,1,3.536,0" fill="#f58518" stroke-width="2" opacity="0.7"/><path aria-label="competition: OlympicG; athlete: Karpov; component 0: −5.37662999524; component 1: 0.832191723063" role="graphics-symbol" aria-roledescription="circle" transform="translate(22.668000173028187,118.24408783290853)" d="M3.536,0A3.536,3.536,0,1,1,-3.536,0A3.536,3.536,0,1,1,3.536,0" fill="#f58518" stroke-width="2" opacity="0.7"/><path aria-label="competition: OlympicG; athlete: Macey; component 0: −2.14741239752; component 1: 0.956146584275" role="graphics-symbol" aria-roledescription="circle" transform="translate(140.09409463577992,111.48291358498788)" d="M3.536,0A3.536,3.536,0,1,1,-3.536,0A3.536,3.536,0,1,1,3.536,0" fill="#f58518" stroke-width="2" opacity="0.7"/><path aria-label="competition: OlympicG; athlete: Warners; component 0: −3.09075614341; component 1: 0.755853630568" role="graphics-symbol" aria-roledescription="circle" transform="translate(105.79068569422496,122.40798378717375)" d="M3.536,0A3.536,3.536,0,1,1,-3.536,0A3.536,3.536,0,1,1,3.536,0" fill="#f58518" stroke-width="2" opacity="0.7"/><path aria-label="competition: OlympicG; athlete: Zsivoczky; component 0: −0.726573197651; component 1: −0.225649194917" role="graphics-symbol" aria-roledescription="circle" transform="translate(191.76097463086643,175.94450154092155)" d="M3.536,0A3.536,3.536,0,1,1,-3.536,0A3.536,3.536,0,1,1,3.536,0" fill="#f58518" stroke-width="2" opacity="0.7"/><path aria-label="competition: OlympicG; athlete: Hernu; component 0: −0.98221758544; component 1: 0.92705046407" role="graphics-symbol" aria-roledescription="circle" transform="translate(182.4648150749043,113.06997468707219)" d="M3.536,0A3.536,3.536,0,1,1,-3.536,0A3.536,3.536,0,1,1,3.536,0" fill="#f58518" stroke-width="2" opacity="0.7"/><path aria-label="competition: OlympicG; athlete: Nool; component 0: −0.806206027855; component 1: −1.41923577723" role="graphics-symbol" aria-roledescription="circle" transform="translate(188.86523535072413,241.04922421269853)" d="M3.536,0A3.536,3.536,0,1,1,-3.536,0A3.536,3.536,0,1,1,3.536,0" fill="#f58518" stroke-width="2" opacity="0.7"/><path aria-label="competition: OlympicG; athlete: Bernard; component 0: −2.50131909428; component 1: 1.62689934349" role="graphics-symbol" aria-roledescription="circle" transform="translate(127.22476020806366,74.89639944600393)" d="M3.536,0A3.536,3.536,0,1,1,-3.536,0A3.536,3.536,0,1,1,3.536,0" fill="#f58518" stroke-width="2" opacity="0.7"/><path aria-label="competition: OlympicG; athlete: Schwarzl; component 0: −0.593174922426; component 1: −0.0602659893097" role="graphics-symbol" aria-roledescription="circle" transform="translate(196.61182100267888,166.92359941689435)" d="M3.536,0A3.536,3.536,0,1,1,-3.536,0A3.536,3.536,0,1,1,3.536,0" fill="#f58518" stroke-width="2" opacity="0.7"/><path aria-label="competition: OlympicG; athlete: Pogorelov; component 0: −1.19672923811; component 1: −0.948651966806" role="graphics-symbol" aria-roledescription="circle" transform="translate(174.6643913415959,215.38101637124197)" d="M3.536,0A3.536,3.536,0,1,1,-3.536,0A3.536,3.536,0,1,1,3.536,0" fill="#f58518" stroke-width="2" opacity="0.7"/><path aria-label="competition: OlympicG; athlete: Schoenbeck; component 0: −0.616947041025; component 1: −1.43079996951" role="graphics-symbol" aria-roledescription="circle" transform="translate(195.74738032636233,241.67999833697857)" d="M3.536,0A3.536,3.536,0,1,1,-3.536,0A3.536,3.536,0,1,1,3.536,0" fill="#f58518" stroke-width="2" opacity="0.7"/><path aria-label="competition: OlympicG; athlete: Barras; component 0: 0.0283041888308; component 1: −0.00615298919585" role="graphics-symbol" aria-roledescription="circle" transform="translate(219.21106141202893,163.97198122886456)" d="M3.536,0A3.536,3.536,0,1,1,-3.536,0A3.536,3.536,0,1,1,3.536,0" fill="#f58518" stroke-width="2" opacity="0.7"/><path aria-label="competition: OlympicG; athlete: Smith; component 0: −1.30637509766; component 1: 0.544059508042" role="graphics-symbol" aria-roledescription="circle" transform="translate(170.67726917607365,133.96039047044448)" d="M3.536,0A3.536,3.536,0,1,1,-3.536,0A3.536,3.536,0,1,1,3.536,0" fill="#f58518" stroke-width="2" opacity="0.7"/><path aria-label="competition: OlympicG; athlete: Averyanov; component 0: −1.0020756407; component 1: 0.592213940835" role="graphics-symbol" aria-roledescription="circle" transform="translate(181.74270397468482,131.33378504534048)" d="M3.536,0A3.536,3.536,0,1,1,-3.536,0A3.536,3.536,0,1,1,3.536,0" fill="#f58518" stroke-width="2" opacity="0.7"/><path aria-label="competition: OlympicG; athlete: Ojaniemi; component 0: −0.969519408431; component 1: 0.121953231294" role="graphics-symbol" aria-roledescription="circle" transform="translate(182.92656696614057,156.9843692021286)" d="M3.536,0A3.536,3.536,0,1,1,-3.536,0A3.536,3.536,0,1,1,3.536,0" fill="#f58518" stroke-width="2" opacity="0.7"/><path aria-label="competition: OlympicG; athlete: Smirnov; component 0: 0.324235533613; component 1: 0.928995898682" role="graphics-symbol" aria-roledescription="circle" transform="translate(229.97220122227708,112.96386007190456)" d="M3.536,0A3.536,3.536,0,1,1,-3.536,0A3.536,3.536,0,1,1,3.536,0" fill="#f58518" stroke-width="2" opacity="0.7"/><path aria-label="competition: OlympicG; athlete: Qi; component 0: 0.0262561102864; component 1: 1.0393887187" role="graphics-symbol" aria-roledescription="circle" transform="translate(219.13658582859546,106.9424335253142)" d="M3.536,0A3.536,3.536,0,1,1,-3.536,0A3.536,3.536,0,1,1,3.536,0" fill="#f58518" stroke-width="2" opacity="0.7"/><path aria-label="competition: OlympicG; athlete: Drews; component 0: −0.783918873023; component 1: 1.63913326034" role="graphics-symbol" aria-roledescription="circle" transform="translate(189.6756773446089,74.22909489072772)" d="M3.536,0A3.536,3.536,0,1,1,-3.536,0A3.536,3.536,0,1,1,3.536,0" fill="#f58518" stroke-width="2" opacity="0.7"/><path aria-label="competition: OlympicG; athlete: Parkhomenko; component 0: 1.274269618; component 1: −1.8304434839" role="graphics-symbol" aria-roledescription="circle" transform="translate(264.51889519990226,263.4787354856353)" d="M3.536,0A3.536,3.536,0,1,1,-3.536,0A3.536,3.536,0,1,1,3.536,0" fill="#f58518" stroke-width="2" opacity="0.7"/><path aria-label="competition: OlympicG; athlete: Terek; component 0: −0.188673746039; component 1: −1.85017227666" role="graphics-symbol" aria-roledescription="circle" transform="translate(211.320954689489,264.55485145399854)" d="M3.536,0A3.536,3.536,0,1,1,-3.536,0A3.536,3.536,0,1,1,3.536,0" fill="#f58518" stroke-width="2" opacity="0.7"/><path aria-label="competition: OlympicG; athlete: Gomez; component 0: −0.2070451656; component 1: 1.08856547486" role="graphics-symbol" aria-roledescription="circle" transform="translate(210.65290306908162,104.26006500740434)" d="M3.536,0A3.536,3.536,0,1,1,-3.536,0A3.536,3.536,0,1,1,3.536,0" fill="#f58518" stroke-width="2" opacity="0.7"/><path aria-label="competition: OlympicG; athlete: Turi; component 0: 0.870719861231; component 1: −0.242170448565" role="graphics-symbol" aria-roledescription="circle" transform="translate(249.84435859022943,176.84566083084226)" d="M3.536,0A3.536,3.536,0,1,1,-3.536,0A3.536,3.536,0,1,1,3.536,0" fill="#f58518" stroke-width="2" opacity="0.7"/><path aria-label="competition: OlympicG; athlete: Lorenzo; component 0: 2.07093274793; component 1: 1.5454613445" role="graphics-symbol" aria-roledescription="circle" transform="translate(293.4884635610111,79.3384721180366)" d="M3.536,0A3.536,3.536,0,1,1,-3.536,0A3.536,3.536,0,1,1,3.536,0" fill="#f58518" stroke-width="2" opacity="0.7"/><path aria-label="competition: OlympicG; athlete: Karlivans; component 0: 1.3212391044; component 1: 1.31834822982" role="graphics-symbol" aria-roledescription="circle" transform="translate(266.22687652352164,91.72646019141804)" d="M3.536,0A3.536,3.536,0,1,1,-3.536,0A3.536,3.536,0,1,1,3.536,0" fill="#f58518" stroke-width="2" opacity="0.7"/><path aria-label="competition: OlympicG; athlete: Korkizoglou; component 0: −0.756226224624; component 1: −1.97576889714" role="graphics-symbol" aria-roledescription="circle" transform="translate(190.68268274094817,271.405576207399)" d="M3.536,0A3.536,3.536,0,1,1,-3.536,0A3.536,3.536,0,1,1,3.536,0" fill="#f58518" stroke-width="2" opacity="0.7"/><path aria-label="competition: OlympicG; athlete: Uldal; component 0: 1.90527618698; component 1: −0.0629840952529" role="graphics-symbol" aria-roledescription="circle" transform="translate(287.46458861757844,167.07185974106486)" d="M3.536,0A3.536,3.536,0,1,1,-3.536,0A3.536,3.536,0,1,1,3.536,0" fill="#f58518" stroke-width="2" opacity="0.7"/><path aria-label="competition: OlympicG; athlete: Casarsa; component 0: 2.28257472127; component 1: −2.15028191082" role="graphics-symbol" aria-roledescription="circle" transform="translate(301.18453531901497,280.92446786296875)" d="M3.536,0A3.536,3.536,0,1,1,-3.536,0A3.536,3.536,0,1,1,3.536,0" fill="#f58518" stroke-width="2" opacity="0.7"/></g><g class="mark-symbol role-mark layer_1_marks" clip-path="url(#clip2)" role="graphics-object" aria-roledescription="symbol mark container"><path aria-label="variable: 100m; component 0: 4.52612196727; component 1: 0.0982167185964" role="graphics-symbol" aria-roledescription="square" transform="translate(382.7680715372107,158.27908807656127)" d="M-3.536,-3.536h7.071v7.071h-7.071Z" fill="green" stroke-width="2" opacity="0.7"/><path aria-label="variable: long.jump; component 0: −3.51506117735; component 1: 0.00881126408369" role="graphics-symbol" aria-roledescription="square" transform="translate(90.36141173289992,163.15574923179858)" d="M-3.536,-3.536h7.071v7.071h-7.071Z" fill="green" stroke-width="2" opacity="0.7"/><path aria-label="variable: shot.put; component 0: −1.87824011891; component 1: −1.59014029876" role="graphics-symbol" aria-roledescription="square" transform="translate(149.882177494248,250.37128902314788)" d="M-3.536,-3.536h7.071v7.071h-7.071Z" fill="green" stroke-width="2" opacity="0.7"/><path aria-label="variable: high.jump; component 0: −1.81313760676; component 1: 1.00059162236" role="graphics-symbol" aria-roledescription="square" transform="translate(152.24954157223536,109.05863878035194)" d="M-3.536,-3.536h7.071v7.071h-7.071Z" fill="green" stroke-width="2" opacity="0.7"/><path aria-label="variable: 400m; component 0: 3.25343122926; component 1: −1.22457908091" role="graphics-symbol" aria-roledescription="square" transform="translate(336.4884083365672,230.43158623160048)" d="M-3.536,-3.536h7.071v7.071h-7.071Z" fill="green" stroke-width="2" opacity="0.7"/><path aria-label="variable: 110m.hurdle; component 0: 4.71034270733; component 1: −0.754959779907" role="graphics-symbol" aria-roledescription="square" transform="translate(389.4670075393381,204.81598799494478)" d="M-3.536,-3.536h7.071v7.071h-7.071Z" fill="green" stroke-width="2" opacity="0.7"/><path aria-label="variable: discus; component 0: −2.93767978185; component 1: −0.707654087242" role="graphics-symbol" aria-roledescription="square" transform="translate(111.35709884189369,202.2356774859163)" d="M-3.536,-3.536h7.071v7.071h-7.071Z" fill="green" stroke-width="2" opacity="0.7"/><path aria-label="variable: pole.vault; component 0: 0.321295313757; component 1: −1.95491169123" role="graphics-symbol" aria-roledescription="square" transform="translate(229.86528413663453,270.2679104309983)" d="M-3.536,-3.536h7.071v7.071h-7.071Z" fill="green" stroke-width="2" opacity="0.7"/><path aria-label="variable: javeline; component 0: −0.0820585742034; component 1: −1.2027877231" role="graphics-symbol" aria-roledescription="square" transform="translate(215.19787002896624,229.24296671455446)" d="M-3.536,-3.536h7.071v7.071h-7.071Z" fill="green" stroke-width="2" opacity="0.7"/><path aria-label="variable: 1500m; component 0: −2.97714981701; component 1: −1.47951009665" role="graphics-symbol" aria-roledescription="square" transform="translate(109.92182483593866,244.33691436256603)" d="M-3.536,-3.536h7.071v7.071h-7.071Z" fill="green" stroke-width="2" opacity="0.7"/><path aria-label="variable: rank; component 0: 4.27541766428; component 1: 0.966371318267" role="graphics-symbol" aria-roledescription="square" transform="translate(373.6515514283972,110.92520082181498)" d="M-3.536,-3.536h7.071v7.071h-7.071Z" fill="green" stroke-width="2" opacity="0.7"/><path aria-label="variable: points; component 0: −4.4750995466; component 1: −0.218868401356" role="graphics-symbol" aria-roledescription="square" transform="translate(55.45092557825991,175.57464007398735)" d="M-3.536,-3.536h7.071v7.071h-7.071Z" fill="green" stroke-width="2" opacity="0.7"/></g><g class="mark-group role-legend" role="graphics-symbol" aria-roledescription="legend" aria-label="Symbol legend titled 'competition' for fill color with 2 values: Decastar, OlympicG"><g transform="translate(418,0)"><path class="background" aria-hidden="true" d="M0,0h63v40h-63Z" pointer-events="none"/><g><g class="mark-group role-legend-entry"><g transform="translate(0,16)"><path class="background" aria-hidden="true" d="M0,0h0v0h0Z" pointer-events="none"/><g><g class="mark-group role-scope" role="graphics-object" aria-roledescription="group mark container"><g transform="translate(0,0)"><path class="background" aria-hidden="true" d="M0,0h59.8916015625v11h-59.8916015625Z" pointer-events="none" opacity="1"/><g><g class="mark-symbol role-legend-symbol" pointer-events="none"><path transform="translate(6,6)" d="M5,0A5,5,0,1,1,-5,0A5,5,0,1,1,5,0" fill="#4c78a8" stroke-width="1.5" opacity="0.7"/></g><g class="mark-text role-legend-label" pointer-events="none"><text text-anchor="start" transform="translate(16,9)" font-family="sans-serif" font-size="10px" fill="#000" opacity="1">Decastar</text></g></g><path class="foreground" aria-hidden="true" d="" pointer-events="none" display="none"/></g><g transform="translate(0,13)"><path class="background" aria-hidden="true" d="M0,0h59.8916015625v11h-59.8916015625Z" pointer-events="none" opacity="1"/><g><g class="mark-symbol role-legend-symbol" pointer-events="none"><path transform="translate(6,6)" d="M5,0A5,5,0,1,1,-5,0A5,5,0,1,1,5,0" fill="#f58518" stroke-width="1.5" opacity="0.7"/></g><g class="mark-text role-legend-label" pointer-events="none"><text text-anchor="start" transform="translate(16,9)" font-family="sans-serif" font-size="10px" fill="#000" opacity="1">OlympicG</text></g></g><path class="foreground" aria-hidden="true" d="" pointer-events="none" display="none"/></g></g></g><path class="foreground" aria-hidden="true" d="" pointer-events="none" display="none"/></g></g><g class="mark-text role-legend-title" pointer-events="none"><text text-anchor="start" transform="translate(0,9)" font-family="sans-serif" font-size="11px" font-weight="bold" fill="#000" opacity="1">competition</text></g></g><path class="foreground" aria-hidden="true" d="" pointer-events="none" display="none"/></g></g></g><path class="foreground" aria-hidden="true" d="" display="none"/></g></g></g><defs><clipPath id="clip1"><rect x="0" y="0" width="400" height="300"/></clipPath><clipPath id="clip2"><rect x="0" y="0" width="400" height="300"/></clipPath></defs></svg>