<svg xmlns="http://www.w3.org/2000/svg" xmlns:xlink="http://www.w3.org/1999/xlink" version="1.1" class="marks" width="525" height="347" viewBox="0 0 525 347"><rect width="525" height="347" fill="white"/><g fill="none" stroke-miterlimit="10" transform="translate(39,10)"><g class="mark-group role-frame root" role="graphics-object" aria-roledescription="group mark container"><g transform="translate(0,0)"><path class="background" aria-hidden="true" d="M0.5,0.5h400v300h-400Z" stroke="#ddd"/><g><g class="mark-group role-axis" aria-hidden="true"><g transform="translate(0.5,300.5)"><path class="background" aria-hidden="true" d="M0,0h0v0h0Z" pointer-events="none"/><g><g class="mark-rule role-axis-grid" pointer-events="none"><line transform="translate(0,-300)" x2="0" y2="300" stroke="#ddd" stroke-width="1" opacity="1"/><line transform="translate(44,-300)" x2="0" y2="300" stroke="#ddd" stroke-width="1" opacity="1"/><line transform="translate(89,-300)" x2="0" y2="300" stroke="#ddd" stroke-width="1" opacity="1"/><line transform="translate(133,-300)" x2="0" y2="300" stroke="#ddd" stroke-width="1" opacity="1"/><line transform="translate(178,-300)" x2="0" y2="300" stroke="#ddd" stroke-width="1" opacity="1"/><line transform="translate(222,-300)" x2="0" y2="300" stroke="#ddd" stroke-width="1" opacity="1"/><line transform="translate(267,-300)" x2="0" y2="300" stroke="#ddd" stroke-width="1" opacity="1"/><line transform="translate(311,-300)" x2="0" y2="300" stroke="#ddd" stroke-width="1" opacity="1"/><line transform="translate(356,-300)" x2="0" y2="300" stroke="#ddd" stroke-width="1" opacity="1"/><line transform="translate(400,-300)" x2="0" y2="300" stroke="#ddd" stroke-width="1" opacity="1"/></g></g><path class="foreground" aria-hidden="true" d="" pointer-events="none" display="none"/></g></g><g class="mark-group role-axis" aria-hidden="true"><g transform="translate(0.5,0.5)"><path class="background" aria-hidden="true" d="M0,0h0v0h0Z" pointer-events="none"/><g><g class="mark-rule role-axis-grid" pointer-events="none"><line transform="translate(0,300)" x2="400" y2="0" stroke="#ddd" stroke-width="1" opacity="1"/><line transform="translate(0,263)" x2="400" y2="0" stroke="#ddd" stroke-width="1" opacity="1"/><line transform="translate(0,225)" x2="400" y2="0" stroke="#ddd" stroke-width="1" opacity="1"/><line transform="translate(0,188)" x2="400" y2="0" stroke="#ddd" stroke-width="1" opacity="1"/><line transform="translate(0,150)" x2="400" y2="0" stroke="#ddd" stroke-width="1" opacity="1"/><line transform="translate(0,113)" x2="400" y2="0" stroke="#ddd" stroke-width="1" opacity="1"/><line transform="translate(0,75)" x2="400" y2="0" stroke="#ddd" stroke-width="1" opacity="1"/><line transform="translate(0,38)" x2="400" y2="0" stroke="#ddd" stroke-width="1" opacity="1"/><line transform="translate(0,0)" x2="400" y2="0" stroke="#ddd" stroke-width="1" opacity="1"/></g></g><path class="foreground" aria-hidden="true" d="" pointer-events="none" display="none"/></g></g><g class="mark-group role-axis" role="graphics-symbol" aria-roledescription="axis" aria-label="X-axis titled 'component 0 — 32.72%' for a linear scale with values from −4 to 5"><g transform="translate(0.5,300.5)"><path class="background" aria-hidden="true" d="M0,0h0v0h0Z" pointer-events="none"/><g><g class="mark-rule role-axis-tick" pointer-events="none"><line transform="translate(0,0)" x2="0" y2="5" stroke="#888" stroke-width="1" opacity="1"/><line transform="translate(44,0)" x2="0" y2="5" stroke="#888" stroke-width="1" opacity="1"/><line transform="translate(89,0)" x2="0" y2="5" stroke="#888" stroke-width="1" opacity="1"/><line transform="translate(133,0)" x2="0" y2="5" stroke="#888" stroke-width="1" opacity="1"/><line transform="translate(178,0)" x2="0" y2="5" stroke="#888" stroke-width="1" opacity="1"/><line transform="translate(222,0)" x2="0" y2="5" stroke="#888" stroke-width="1" opacity="1"/><line transform="translate(267,0)" x2="0" y2="5" stroke="#888" stroke-width="1" opacity="1"/><line transform="translate(311,0)" x2="0" y2="5" stroke="#888" stroke-width="1" opacity="1"/><line transform="translate(356,0)" x2="0" y2="5" stroke="#888" stroke-width="1" opacity="1"/><line transform="translate(400,0)" x2="0" y2="5" stroke="#888" stroke-width="1" opacity="1"/></g><g class="mark-text role-axis-label" pointer-events="none"><text text-anchor="start" transform="translate(0,15)" font-family="sans-serif" font-size="10px" fill="#000" opacity="1">−4</text><text text-anchor="middle" transform="translate(44.44444444444444,15)" font-family="sans-serif" font-size="10px" fill="#000" opacity="1">−3</text><text text-anchor="middle" transform="translate(88.88888888888889,15)" font-family="sans-serif" font-size="10px" fill="#000" opacity="1">−2</text><text text-anchor="middle" transform="translate(133.33333333333331,15)" font-family="sans-serif" font-size="10px" fill="#000" opacity="1">−1</text><text text-anchor="middle" transform="translate(177.77777777777777,15)" font-family="sans-serif" font-size="10px" fill="#000" opacity="1">0</text><text text-anchor="middle" transform="translate(222.22222222222223,15)" font-family="sans-serif" font-size="10px" fill="#000" opacity="1">1</text><text text-anchor="middle" transform="translate(266.66666666666663,15)" font-family="sans-serif" font-size="10px" fill="#000" opacity="1">2</text><text text-anchor="middle" transform="translate(311.11111111111114,15)" font-family="sans-serif" font-size="10px" fill="#000" opacity="1">3</text><text text-anchor="middle" transform="translate(355.55555555555554,15)" font-family="sans-serif" font-size="10px" fill="#000" opacity="1">4</text><text text-anchor="end" transform="translate(400,15)" font-family="sans-serif" font-size="10px" fill="#000" opacity="1">5</text></g><g class="mark-rule role-axis-domain" pointer-events="none"><line transform="translate(0,0)" x2="400" y2="0" stroke="#888" stroke-width="1" opacity="1"/></g><g class="mark-text role-axis-title" pointer-events="none"><text text-anchor="middle" transform="translate(200,30)" font-family="sans-serif" font-size="11px" font-weight="bold" fill="#000" opacity="1">component 0 — 32.72%</text></g></g><path class="foreground" aria-hidden="true" d="" pointer-events="none" display="none"/></g></g><g class="mark-group role-axis" role="graphics-symbol" aria-roledescription="axis" aria-label="Y-axis titled 'component 1 — 17.37%' for a linear scale with values from −4 to 4"><g transform="translate(0.5,0.5)"><path class="background" aria-hidden="true" d="M0,0h0v0h0Z" pointer-events="none"/><g><g class="mark-rule role-axis-tick" pointer-events="none"><line transform="translate(0,300)" x2="-5" y2="0" stroke="#888" stroke-width="1" opacity="1"/><line transform="translate(0,263)" x2="-5" y2="0" stroke="#888" stroke-width="1" opacity="1"/><line transform="translate(0,225)" x2="-5" y2="0" stroke="#888" stroke-width="1" opacity="1"/><line transform="translate(0,188)" x2="-5" y2="0" stroke="#888" stroke-width="1" opacity="1"/><line transform="translate(0,150)" x2="-5" y2="0" stroke="#888" stroke-width="1" opacity="1"/><line transform="translate(0,113)" x2="-5" y2="0" stroke="#888" stroke-width="1" opacity="1"/><line transform="translate(0,75)" x2="-5" y2="0" stroke="#888" stroke-width="1" opacity="1"/><line transform="translate(0,38)" x2="-5" y2="0" stroke="#888" stroke-width="1" opacity="1"/><line transform="translate(0,0)" x2="-5" y2="0" stroke="#888" stroke-width="1" opacity="1"/></g><g class="mark-text role-axis-label" pointer-events="none"><text text-anchor="end" transform="translate(-7,303)" font-family="sans-serif" font-size="10px" fill="#000" opacity="1">−4</text><text text-anchor="end" transform="translate(-7,265.5)" font-family="sans-serif" font-size="10px" fill="#000" opacity="1">−3</text><text text-anchor="end" transform="translate(-7,228)" font-family="sans-serif" font-size="10px" fill="#000" opacity="1">−2</text><text text-anchor="end" transform="translate(-7,190.5)" font-family="sans-serif" font-size="10px" fill="#000" opacity="1">−1</text><text text-anchor="end" transform="translate(-7,153)" font-family="sans-serif" font-size="10px" fill="#000" opacity="1">0</text><text text-anchor="end" transform="translate(-7,115.5)" font-family="sans-serif" font-size="10px" fill="#000" opacity="1">1</text><text text-anchor="end" transform="translate(-7,78)" font-family="sans-serif" font-size="10px" fill="#000" opacity="1">2</text><text text-anchor="end" transform="translate(-7,40.5)" font-family="sans-serif" font-size="10px" fill="#000" opacity="1">3</text><text text-anchor="end" transform="translate(-7,3)" font-family="sans-serif" font-size="10px" fill="#000" opacity="1">4</text></g><g class="mark-rule role-axis-domain" pointer-events="none"><line transform="translate(0,300)" x2="0" y2="-300" stroke="#888" stroke-width="1" opacity="1"/></g><g class="mark-text role-axis-title" pointer-events="none"><text text-anchor="middle" transform="translate(-22.399999618530273,150) rotate(-90) translate(0,-2)" font-family="sans-serif" font-size="11px" font-weight="bold" fill="#000" opacity="1">component 1 — 17.37%</text></g></g><path class="foreground" aria-hidden="true" d="" pointer-events="none" display="none"/></g></g><g class="mark-symbol role-mark layer_0_marks" clip-path="url(#clip1)" role="graphics-object" aria-roledescription="symbol mark container"><path aria-label="competition: Decastar; athlete: Sebrle; component 0: 0.79162771689; component 1: 0.771611195522" role="graphics-symbol" aria-roledescription="circle" transform="translate(212.96123186177041,121.06458016792385)" d="M3.5355339059327378,0A3.5355339059327378,3.5355339059327378,0,1,1,-3.5355339059327378,0A3.5355339059327378,3.5355339059327378,0,1,1,3.5355339059327378,0" fill="#4c78a8" stroke-width="2" opacity="0.7"/><path aria-label="competition: Decastar; athlete: Clay; component 0: 1.23499056292; component 1: 0.574578065338" role="graphics-symbol" aria-roledescription="circle" transform="translate(232.66624724098102,128.4533225498066)" d="M3.5355339059327378,0A3.5355339059327378,3.5355339059327378,0,1,1,-3.5355339059327378,0A3.5355339059327378,3.5355339059327378,0,1,1,3.5355339059327378,0" fill="#4c78a8" stroke-width="2" opacity="0.7"/><path aria-label="competition: Decastar; athlete: Karpov; component 0: 1.35821493576; component 1: 0.484020901129" role="graphics-symbol" aria-roledescription="circle" transform="translate(238.1428860336877,131.84921620766704)" d="M3.5355339059327378,0A3.5355339059327378,3.5355339059327378,0,1,1,-3.5355339059327378,0A3.5355339059327378,3.5355339059327378,0,1,1,3.5355339059327378,0" fill="#4c78a8" stroke-width="2" opacity="0.7"/><path aria-label="competition: Decastar; athlete: Bernard; component 0: −0.609515083106; component 1: −0.874628528835" role="graphics-symbol" aria-roledescription="circle" transform="translate(150.68821852861848,182.79856983132376)" d="M3.5355339059327378,0A3.5355339059327378,3.5355339059327378,0,1,1,-3.5355339059327378,0A3.5355339059327378,3.5355339059327378,0,1,1,3.5355339059327378,0" fill="#4c78a8" stroke-width="2" opacity="0.7"/><path aria-label="competition: Decastar; athlete: Yurkov; component 0: −0.585968337761; component 1: 2.13095422255" role="graphics-symbol" aria-roledescription="circle" transform="translate(151.73474054395166,70.08921665430516)" d="M3.5355339059327378,0A3.5355339059327378,3.5355339059327378,0,1,1,-3.5355339059327378,0A3.5355339059327378,3.5355339059327378,0,1,1,3.5355339059327378,0" fill="#4c78a8" stroke-width="2" opacity="0.7"/><path aria-label="competition: Decastar; athlete: Warners; component 0: 0.356889530489; component 1: −1.68495666583" role="graphics-symbol" aria-roledescription="circle" transform="translate(193.63953468838508,213.1858749686119)" d="M3.5355339059327378,0A3.5355339059327378,3.5355339059327378,0,1,1,-3.5355339059327378,0A3.5355339059327378,3.5355339059327378,0,1,1,3.5355339059327378,0" fill="#4c78a8" stroke-width="2" opacity="0.7"/><path aria-label="competition: Decastar; athlete: Zsivoczky; component 0: 0.271774781024; component 1: −1.0937755775" role="graphics-symbol" aria-roledescription="circle" transform="translate(189.85665693441973,191.01658415614259)" d="M3.5355339059327378,0A3.5355339059327378,3.5355339059327378,0,1,1,-3.5355339059327378,0A3.5355339059327378,3.5355339059327378,0,1,1,3.5355339059327378,0" fill="#4c78a8" stroke-width="2" opacity="0.7"/><path aria-label="competition: Decastar; athlete: Mcmullen; component 0: 0.587516189056; component 1: 0.230729911762" role="graphics-symbol" aria-roledescription="circle" transform="translate(203.8896084024915,141.34762830890676)" d="M3.5355339059327378,0A3.5355339059327378,3.5355339059327378,0,1,1,-3.5355339059327378,0A3.5355339059327378,3.5355339059327378,0,1,1,3.5355339059327378,0" fill="#4c78a8" stroke-width="2" opacity="0.7"/><path aria-label="competition: Decastar; athlete: Martineau; component 0: −1.99535929802; component 1: 0.560995981576" role="graphics-symbol" aria-roledescription="circle" transform="translate(89.09514231000516,128.96265069088432)" d="M3.5355339059327378,0A3.5355339059327378,3.5355339059327378,0,1,1,-3.5355339059327378,0A3.5355339059327378,3.5355339059327378,0,1,1,3.5355339059327378,0" fill="#4c78a8" stroke-width="2" opacity="0.7"/><path aria-label="competition: Decastar; athlete: Hernu; component 0: −1.54607646168; component 1: 0.488383010941" role="graphics-symbol" aria-roledescription="circle" transform="translate(109.06326836992488,131.68563708970672)" d="M3.5355339059327378,0A3.5355339059327378,3.5355339059327378,0,1,1,-3.5355339059327378,0A3.5355339059327378,3.5355339059327378,0,1,1,3.5355339059327378,0" fill="#4c78a8" stroke-width="2" opacity="0.7"/><path aria-label="competition: Decastar; athlete: Barras; component 0: −1.34165272675; component 1: −0.310911570685" role="graphics-symbol" aria-roledescription="circle" transform="translate(118.14876769989739,161.65918390069888)" d="M3.5355339059327378,0A3.5355339059327378,3.5355339059327378,0,1,1,-3.5355339059327378,0A3.5355339059327378,3.5355339059327378,0,1,1,3.5355339059327378,0" fill="#4c78a8" stroke-width="2" opacity="0.7"/><path aria-label="competition: Decastar; athlete: Nool; component 0: −2.34497380559; component 1: −1.96637500055" role="graphics-symbol" aria-roledescription="circle" transform="translate(73.5567197517542,223.73906252059038)" d="M3.5355339059327378,0A3.5355339059327378,3.5355339059327378,0,1,1,-3.5355339059327378,0A3.5355339059327378,3.5355339059327378,0,1,1,3.5355339059327378,0" fill="#4c78a8" stroke-width="2" opacity="0.7"/><path aria-label="competition: Decastar; athlete: Bourguignon; component 0: −3.97904186458; component 1: 0.199860189935" role="graphics-symbol" aria-roledescription="circle" transform="translate(0.931472685372587,142.50524287743855)" d="M3.5355339059327378,0A3.5355339059327378,3.5355339059327378,0,1,1,-3.5355339059327378,0A3.5355339059327378,3.5355339059327378,0,1,1,3.5355339059327378,0" fill="#4c78a8" stroke-width="2" opacity="0.7"/><path aria-label="competition: OlympicG; athlete: Sebrle; component 0: 4.03844850144; component 1: 1.36582606354" role="graphics-symbol" aria-roledescription="circle" transform="translate(357.2643778418034,98.78152261710328)" d="M3.5355339059327378,0A3.5355339059327378,3.5355339059327378,0,1,1,-3.5355339059327378,0A3.5355339059327378,3.5355339059327378,0,1,1,3.5355339059327378,0" fill="#f58518" stroke-width="2" opacity="0.7"/><path aria-label="competition: OlympicG; athlete: Clay; component 0: 3.91936515723; component 1: 0.836961362604" role="graphics-symbol" aria-roledescription="circle" transform="translate(351.97178476569997,118.61394890234175)" d="M3.5355339059327378,0A3.5355339059327378,3.5355339059327378,0,1,1,-3.5355339059327378,0A3.5355339059327378,3.5355339059327378,0,1,1,3.5355339059327378,0" fill="#f58518" stroke-width="2" opacity="0.7"/><path aria-label="competition: OlympicG; athlete: Karpov; component 0: 4.61998727504; component 1: 0.0399952288964" role="graphics-symbol" aria-roledescription="circle" transform="translate(383.11054555754663,148.5001789163854)" d="M3.5355339059327378,0A3.5355339059327378,3.5355339059327378,0,1,1,-3.5355339059327378,0A3.5355339059327378,3.5355339059327378,0,1,1,3.5355339059327378,0" fill="#f58518" stroke-width="2" opacity="0.7"/><path aria-label="competition: OlympicG; athlete: Macey; component 0: 2.2334605656; component 1: 1.04176620064" role="graphics-symbol" aria-roledescription="circle" transform="translate(277.0426918043553,110.93376747598222)" d="M3.5355339059327378,0A3.5355339059327378,3.5355339059327378,0,1,1,-3.5355339059327378,0A3.5355339059327378,3.5355339059327378,0,1,1,3.5355339059327378,0" fill="#f58518" stroke-width="2" opacity="0.7"/><path aria-label="competition: OlympicG; athlete: Warners; component 0: 2.16839644541; component 1: −1.80320025033" role="graphics-symbol" aria-roledescription="circle" transform="translate(274.1509531291739,217.6200093875129)" d="M3.5355339059327378,0A3.5355339059327378,3.5355339059327378,0,1,1,-3.5355339059327378,0A3.5355339059327378,3.5355339059327378,0,1,1,3.5355339059327378,0" fill="#f58518" stroke-width="2" opacity="0.7"/><path aria-label="competition: OlympicG; athlete: Zsivoczky; component 0: 0.925132182894; component 1: 1.1686517961" role="graphics-symbol" aria-roledescription="circle" transform="translate(218.89476368417374,106.17555764629277)" d="M3.5355339059327378,0A3.5355339059327378,3.5355339059327378,0,1,1,-3.5355339059327378,0A3.5355339059327378,3.5355339059327378,0,1,1,3.5355339059327378,0" fill="#f58518" stroke-width="2" opacity="0.7"/><path aria-label="competition: OlympicG; athlete: Hernu; component 0: 0.889037851513; component 1: −0.618425215536" role="graphics-symbol" aria-roledescription="circle" transform="translate(217.2905711783547,173.19094558260005)" d="M3.5355339059327378,0A3.5355339059327378,3.5355339059327378,0,1,1,-3.5355339059327378,0A3.5355339059327378,3.5355339059327378,0,1,1,3.5355339059327378,0" fill="#f58518" stroke-width="2" opacity="0.7"/><path aria-label="competition: OlympicG; athlete: Nool; component 0: 0.295305666684; component 1: −1.54561667242" role="graphics-symbol" aria-roledescription="circle" transform="translate(190.90247407486572,207.96062521591864)" d="M3.5355339059327378,0A3.5355339059327378,3.5355339059327378,0,1,1,-3.5355339059327378,0A3.5355339059327378,3.5355339059327378,0,1,1,3.5355339059327378,0" fill="#f58518" stroke-width="2" opacity="0.7"/><path aria-label="competition: OlympicG; athlete: Bernard; component 0: 1.90633436768; component 1: −0.0858042917984" role="graphics-symbol" aria-roledescription="circle" transform="translate(262.5037496745399,153.2176609424385)" d="M3.5355339059327378,0A3.5355339059327378,3.5355339059327378,0,1,1,-3.5355339059327378,0A3.5355339059327378,3.5355339059327378,0,1,1,3.5355339059327378,0" fill="#f58518" stroke-width="2" opacity="0.7"/><path aria-label="competition: OlympicG; athlete: Schwarzl; component 0: 0.0810786593916; component 1: −1.35345709932" role="graphics-symbol" aria-roledescription="circle" transform="translate(181.38127375073915,200.7546412244214)" d="M3.5355339059327378,0A3.5355339059327378,3.5355339059327378,0,1,1,-3.5355339059327378,0A3.5355339059327378,3.5355339059327378,0,1,1,3.5355339059327378,0" fill="#f58518" stroke-width="2" opacity="0.7"/><path aria-label="competition: OlympicG; athlete: Pogorelov; component 0: 0.539677027745; component 1: 0.770750989698" role="graphics-symbol" aria-roledescription="circle" transform="translate(201.7634234553495,121.09683788630836)" d="M3.5355339059327378,0A3.5355339059327378,3.5355339059327378,0,1,1,-3.5355339059327378,0A3.5355339059327378,3.5355339059327378,0,1,1,3.5355339059327378,0" fill="#f58518" stroke-width="2" opacity="0.7"/><path aria-label="competition: OlympicG; athlete: Schoenbeck; component 0: 0.114430984607; component 1: −0.0398506080852" role="graphics-symbol" aria-roledescription="circle" transform="translate(182.86359931588257,151.49439780319435)" d="M3.5355339059327378,0A3.5355339059327378,3.5355339059327378,0,1,1,-3.5355339059327378,0A3.5355339059327378,3.5355339059327378,0,1,1,3.5355339059327378,0" fill="#f58518" stroke-width="2" opacity="0.7"/><path aria-label="competition: OlympicG; athlete: Barras; component 0: 0.00214520276767; component 1: 0.360337684807" role="graphics-symbol" aria-roledescription="circle" transform="translate(177.87312012300765,136.48733681973135)" d="M3.5355339059327378,0A3.5355339059327378,3.5355339059327378,0,1,1,-3.5355339059327378,0A3.5355339059327378,3.5355339059327378,0,1,1,3.5355339059327378,0" fill="#f58518" stroke-width="2" opacity="0.7"/><path aria-label="competition: OlympicG; athlete: Smith; component 0: 0.87031056972; component 1: 1.05932551998" role="graphics-symbol" aria-roledescription="circle" transform="translate(216.45824754313293,110.27529300071367)" d="M3.5355339059327378,0A3.5355339059327378,3.5355339059327378,0,1,1,-3.5355339059327378,0A3.5355339059327378,3.5355339059327378,0,1,1,3.5355339059327378,0" fill="#f58518" stroke-width="2" opacity="0.7"/><path aria-label="competition: OlympicG; athlete: Averyanov; component 0: 0.349155137968; component 1: −1.55864999153" role="graphics-symbol" aria-roledescription="circle" transform="translate(193.29578390967146,208.4493746825444)" d="M3.5355339059327378,0A3.5355339059327378,3.5355339059327378,0,1,1,-3.5355339059327378,0A3.5355339059327378,3.5355339059327378,0,1,1,3.5355339059327378,0" fill="#f58518" stroke-width="2" opacity="0.7"/><path aria-label="competition: OlympicG; athlete: Ojaniemi; component 0: 0.380113998692; component 1: −0.772447342956" role="graphics-symbol" aria-roledescription="circle" transform="translate(194.6717332751979,178.96677536083305)" d="M3.5355339059327378,0A3.5355339059327378,3.5355339059327378,0,1,1,-3.5355339059327378,0A3.5355339059327378,3.5355339059327378,0,1,1,3.5355339059327378,0" fill="#f58518" stroke-width="2" opacity="0.7"/><path aria-label="competition: OlympicG; athlete: Smirnov; component 0: −0.484514212539; component 1: −1.06066118077" role="graphics-symbol" aria-roledescription="circle" transform="translate(156.24381277604118,189.7747942790441)" d="M3.5355339059327378,0A3.5355339059327378,3.5355339059327378,0,1,1,-3.5355339059327378,0A3.5355339059327378,3.5355339059327378,0,1,1,3.5355339059327378,0" fill="#f58518" stroke-width="2" opacity="0.7"/><path aria-label="competition: OlympicG; athlete: Qi; component 0: −0.434466690806; component 1: −0.326146897174" role="graphics-symbol" aria-roledescription="circle" transform="translate(158.46814707527156,162.23050864403808)" d="M3.5355339059327378,0A3.5355339059327378,3.5355339059327378,0,1,1,-3.5355339059327378,0A3.5355339059327378,3.5355339059327378,0,1,1,3.5355339059327378,0" fill="#f58518" stroke-width="2" opacity="0.7"/><path aria-label="competition: OlympicG; athlete: Drews; component 0: −0.248684024375; component 1: −3.0816768301" role="graphics-symbol" aria-roledescription="circle" transform="translate(166.72515447222423,265.56288112890985)" d="M3.5355339059327378,0A3.5355339059327378,3.5355339059327378,0,1,1,-3.5355339059327378,0A3.5355339059327378,3.5355339059327378,0,1,1,3.5355339059327378,0" fill="#f58518" stroke-width="2" opacity="0.7"/><path aria-label="competition: OlympicG; athlete: Parkhomenko; component 0: −1.06942910428; component 1: 2.09318217909" role="graphics-symbol" aria-roledescription="circle" transform="translate(130.2475953654736,71.50566828412413)" d="M3.5355339059327378,0A3.5355339059327378,3.5355339059327378,0,1,1,-3.5355339059327378,0A3.5355339059327378,3.5355339059327378,0,1,1,3.5355339059327378,0" fill="#f58518" stroke-width="2" opacity="0.7"/><path aria-label="competition: OlympicG; athlete: Terek; component 0: −0.681953059148; component 1: 0.535614397988" role="graphics-symbol" aria-roledescription="circle" transform="translate(147.46875292674497,129.91446007544835)" d="M3.5355339059327378,0A3.5355339059327378,3.5355339059327378,0,1,1,-3.5355339059327378,0A3.5355339059327378,3.5355339059327378,0,1,1,3.5355339059327378,0" fill="#f58518" stroke-width="2" opacity="0.7"/><path aria-label="competition: OlympicG; athlete: Gomez; component 0: −0.289889207723; component 1: −1.19671610589" role="graphics-symbol" aria-roledescription="circle" transform="translate(164.89381299010407,194.8768539709159)" d="M3.5355339059327378,0A3.5355339059327378,3.5355339059327378,0,1,1,-3.5355339059327378,0A3.5355339059327378,3.5355339059327378,0,1,1,3.5355339059327378,0" fill="#f58518" stroke-width="2" opacity="0.7"/><path aria-label="competition: OlympicG; athlete: Turi; component 0: −1.54181305559; component 1: 0.427167725247" role="graphics-symbol" aria-roledescription="circle" transform="translate(109.25275308509161,133.9812103032292)" d="M3.5355339059327378,0A3.5355339059327378,3.5355339059327378,0,1,1,-3.5355339059327378,0A3.5355339059327378,3.5355339059327378,0,1,1,3.5355339059327378,0" fill="#f58518" stroke-width="2" opacity="0.7"/><path aria-label="competition: OlympicG; athlete: Lorenzo; component 0: −2.40850997955; component 1: −1.58292969328" role="graphics-symbol" aria-roledescription="circle" transform="translate(70.73288979778286,209.35986349811685)" d="M3.5355339059327378,0A3.5355339059327378,3.5355339059327378,0,1,1,-3.5355339059327378,0A3.5355339059327378,3.5355339059327378,0,1,1,3.5355339059327378,0" fill="#f58518" stroke-width="2" opacity="0.7"/><path aria-label="competition: OlympicG; athlete: Karlivans; component 0: −1.99436872683; component 1: −0.294182396249" role="graphics-symbol" aria-roledescription="circle" transform="translate(89.1391676964047,161.03183985933333)" d="M3.5355339059327378,0A3.5355339059327378,3.5355339059327378,0,1,1,-3.5355339059327378,0A3.5355339059327378,3.5355339059327378,0,1,1,3.5355339059327378,0" fill="#f58518" stroke-width="2" opacity="0.7"/><path aria-label="competition: OlympicG; athlete: Korkizoglou; component 0: −0.957829813261; component 1: 2.0663855365" role="graphics-symbol" aria-roledescription="circle" transform="translate(135.2075638550729,72.51054238128916)" d="M3.5355339059327378,0A3.5355339059327378,3.5355339059327378,0,1,1,-3.5355339059327378,0A3.5355339059327378,3.5355339059327378,0,1,1,3.5355339059327378,0" fill="#f58518" stroke-width="2" opacity="0.7"/><path aria-label="competition: OlympicG; athlete: Uldal; component 0: −2.56225959073; component 1: 0.24546870508" role="graphics-symbol" aria-roledescription="circle" transform="translate(63.89957374541745,140.7949235594849)" d="M3.5355339059327378,0A3.5355339059327378,3.5355339059327378,0,1,1,-3.5355339059327378,0A3.5355339059327378,3.5355339059327378,0,1,1,3.5355339059327378,0" fill="#f58518" stroke-width="2" opacity="0.7"/><path aria-label="competition: OlympicG; athlete: Casarsa; component 0: −2.85708826821; component 1: 3.79784504993" role="graphics-symbol" aria-roledescription="circle" transform="translate(50.79607696850815,7.580810627739298)" d="M3.5355339059327378,0A3.5355339059327378,3.5355339059327378,0,1,1,-3.5355339059327378,0A3.5355339059327378,3.5355339059327378,0,1,1,3.5355339059327378,0" fill="#f58518" stroke-width="2" opacity="0.7"/></g><g class="mark-symbol role-mark layer_1_marks" clip-path="url(#clip2)" role="graphics-object" aria-roledescription="symbol mark container"><path aria-label="variable: 100m; component 0: −0.774719828334; component 1: 0.187141992739" role="graphics-symbol" aria-roledescription="square" transform="translate(143.34578540737684,142.98217527230298)" d="M-3.5355339059327378,-3.5355339059327378h7.0710678118654755v7.0710678118654755h-7.0710678118654755Z" fill="green" stroke-width="2" opacity="0.7"/><path aria-label="variable: long.jump; component 0: 0.741899744959; component 1: −0.345421293759" role="graphics-symbol" aria-roledescription="square" transform="translate(210.75109977594514,162.95329851597333)" d="M-3.5355339059327378,-3.5355339059327378h7.0710678118654755v7.0710678118654755h-7.0710678118654755Z" fill="green" stroke-width="2" opacity="0.7"/><path aria-label="variable: shot.put; component 0: 0.622502551053; component 1: 0.598303320652" role="graphics-symbol" aria-roledescription="square" transform="translate(205.4445578245701,127.56362547554212)" d="M-3.5355339059327378,-3.5355339059327378h7.0710678118654755v7.0710678118654755h-7.0710678118654755Z" fill="green" stroke-width="2" opacity="0.7"/><path aria-label="variable: high.jump; component 0: 0.571945296008; component 1: 0.350293607805" role="graphics-symbol" aria-roledescription="square" transform="translate(203.19756871147314,136.86398970731074)" d="M-3.5355339059327378,-3.5355339059327378h7.0710678118654755v7.0710678118654755h-7.0710678118654755Z" fill="green" stroke-width="2" opacity="0.7"/><path aria-label="variable: 400m; component 0: −0.679609942695; component 1: 0.56943777659" role="graphics-symbol" aria-roledescription="square" transform="translate(147.57289143579789,128.64608337786433)" d="M-3.5355339059327378,-3.5355339059327378h7.0710678118654755v7.0710678118654755h-7.0710678118654755Z" fill="green" stroke-width="2" opacity="0.7"/><path aria-label="variable: 110m.hurdle; component 0: −0.746245323965; component 1: 0.228793345393" role="graphics-symbol" aria-roledescription="square" transform="translate(144.6113189348856,141.42024954776983)" d="M-3.5355339059327378,-3.5355339059327378h7.0710678118654755v7.0710678118654755h-7.0710678118654755Z" fill="green" stroke-width="2" opacity="0.7"/><path aria-label="variable: discus; component 0: 0.552466519304; component 1: 0.606313391081" role="graphics-symbol" aria-roledescription="square" transform="translate(202.33184530240908,127.2632478344454)" d="M-3.5355339059327378,-3.5355339059327378h7.0710678118654755v7.0710678118654755h-7.0710678118654755Z" fill="green" stroke-width="2" opacity="0.7"/><path aria-label="variable: pole.vault; component 0: 0.0503415130996; component 1: −0.180356869901" role="graphics-symbol" aria-roledescription="square" transform="translate(180.0151783599826,156.76338262127078)" d="M-3.5355339059327378,-3.5355339059327378h7.0710678118654755v7.0710678118654755h-7.0710678118654755Z" fill="green" stroke-width="2" opacity="0.7"/><path aria-label="variable: javeline; component 0: 0.277110846021; component 1: 0.316989060548" role="graphics-symbol" aria-roledescription="square" transform="translate(190.09381537872528,138.1129102294583)" d="M-3.5355339059327378,-3.5355339059327378h7.0710678118654755v7.0710678118654755h-7.0710678118654755Z" fill="green" stroke-width="2" opacity="0.7"/><path aria-label="variable: 1500m; component 0: −0.0580770579821; component 1: 0.474223768687" role="graphics-symbol" aria-roledescription="square" transform="translate(175.19657520079653,132.21660867425607)" d="M-3.5355339059327378,-3.5355339059327378h7.0710678118654755v7.0710678118654755h-7.0710678118654755Z" fill="green" stroke-width="2" opacity="0.7"/><path aria-label="variable: rank; component 0: −0.670510354298; component 1: 0.0513981237085" role="graphics-symbol" aria-roledescription="square" transform="translate(147.97731758675747,148.07257036093054)" d="M-3.5355339059327378,-3.5355339059327378h7.0710678118654755v7.0710678118654755h-7.0710678118654755Z" fill="green" stroke-width="2" opacity="0.7"/><path aria-label="variable: points; component 0: 0.956154263358; component 1: −0.016516130298" role="graphics-symbol" aria-roledescription="square" transform="translate(220.2735228159243,150.61935488617547)" d="M-3.5355339059327378,-3.5355339059327378h7.0710678118654755v7.0710678118654755h-7.0710678118654755Z" fill="green" stroke-width="2" opacity="0.7"/></g><g class="mark-group role-legend" role="graphics-symbol" aria-roledescription="legend" aria-label="Symbol legend titled 'competition' for fill color with 2 values: Decastar, OlympicG"><g transform="translate(418,0)"><path class="background" aria-hidden="true" d="M0,0h63v40h-63Z" pointer-events="none"/><g><g class="mark-group role-legend-entry"><g transform="translate(0,16)"><path class="background" aria-hidden="true" d="M0,0h0v0h0Z" pointer-events="none"/><g><g class="mark-group role-scope" role="graphics-object" aria-roledescription="group mark container"><g transform="translate(0,0)"><path class="background" aria-hidden="true" d="M0,0h59.900001525878906v11h-59.900001525878906Z" pointer-events="none" opacity="1"/><g><g class="mark-symbol role-legend-symbol" pointer-events="none"><path transform="translate(6,6)" d="M5,0A5,5,0,1,1,-5,0A5,5,0,1,1,5,0" fill="#4c78a8" stroke-width="1.5" opacity="0.7"/></g><g class="mark-text role-legend-label" pointer-events="none"><text text-anchor="start" transform="translate(16,9)" font-family="sans-serif" font-size="10px" fill="#000" opacity="1">Decastar</text></g></g><path class="foreground" aria-hidden="true" d="" pointer-events="none" display="none"/></g><g transform="translate(0,13)"><path class="background" aria-hidden="true" d="M0,0h59.900001525878906v11h-59.900001525878906Z" pointer-events="none" opacity="1"/><g><g class="mark-symbol role-legend-symbol" pointer-events="none"><path transform="translate(6,6)" d="M5,0A5,5,0,1,1,-5,0A5,5,0,1,1,5,0" fill="#f58518" stroke-width="1.5" opacity="0.7"/></g><g class="mark-text role-legend-label" pointer-events="none"><text text-anchor="start" transform="translate(16,9)" font-family="sans-serif" font-size="10px" fill="#000" opacity="1">OlympicG</text></g></g><path class="foreground" aria-hidden="true" d="" pointer-events="none" display="none"/></g></g></g><path class="foreground" aria-hidden="true" d="" pointer-events="none" display="none"/></g></g><g class="mark-text role-legend-title" pointer-events="none"><text text-anchor="start" transform="translate(0,9)" font-family="sans-serif" font-size="11px" font-weight="bold" fill="#000" opacity="1">competition</text></g></g><path class="foreground" aria-hidden="true" d="" pointer-events="none" display="none"/></g></g></g><path class="foreground" aria-hidden="true" d="" display="none"/></g></g></g><defs><clipPath id="clip1"><rect x="0" y="0" width="400" height="300"/></clipPath><clipPath id="clip2"><rect x="0" y="0" width="400" height="300"/></clipPath></defs></svg>